<svg width="30" height="22" viewBox="0 0 30 22" fill="none" xmlns="http://www.w3.org/2000/svg">
<path d="M0 12.8438V6.42188V0H12.8438V12.8438L8.57812 21.375H5.41875C3.36562 21.375 2.25 21.3375 2.25 21.2813C2.25 21.225 3.17812 19.3313 4.3125 17.0625C5.44688 14.7938 6.375 12.9188 6.375 12.8906C6.375 12.8625 4.94063 12.8438 0 12.8438Z" fill="#CCCCCC"/>
<path d="M17.1562 12.8438V6.42188V0H30V12.8438L25.7344 21.375H22.575C20.5219 21.375 19.4062 21.3375 19.4062 21.2813C19.4062 21.225 20.3344 19.3313 21.4688 17.0625C22.6031 14.7938 23.5312 12.9188 23.5312 12.8906C23.5312 12.8625 22.0969 12.8438 17.1562 12.8438Z" fill="#CCCCCC"/>
</svg>
