<svg width="153" height="447" viewBox="0 0 153 447" fill="none" xmlns="http://www.w3.org/2000/svg">
<path d="M31.9991 -0.000473022C69.9991 -0.000473022 81.9992 -0.000473022 148.499 -0.000473022C168.859 30.5618 98.417 53.9761 90.4992 114.535C82.5814 175.188 136.595 270.788 116.348 301.822C96.1008 332.95 62.5633 342.006 35.0207 366.908C7.53471 391.811 18.9998 398 0.000823599 421C-0.000515938 436.5 -0.00110163 464.5 -0.00055613 430.5C-0.000727791 391.5 -0.000651497 457.5 -0.000727791 389.5C-0.000575203 326 -0.000529427 335.5 -0.000575203 287C-0.00086512 238.5 -0.00120081 235.5 -0.000773567 187C-0.000773567 145 -0.00086512 93.5 -0.00086512 57C-0.00086512 20.5 -0.00086512 16.5 -0.00086512 -0.000488281C21.3771 0.56548 -6.00087 -0.000473022 31.9991 -0.000473022Z" fill="#E9F5F3"/>
</svg>
