<svg width="903" height="797" viewBox="0 0 903 797" fill="none" xmlns="http://www.w3.org/2000/svg">
<path d="M903 -3.69812e-05C903 84.5 903 117 903 326C903 542.5 903 468.5 903 620.5C903 791.5 882.761 809.11 739.166 791.5C595.346 773.889 469.362 672.742 362.343 559.176C255.55 445.384 167.948 319.398 150.338 175.578C121.652 -6.02461 91.1512 6.47505 218.652 6.47505C346.152 6.47505 477.637 -0.913839 677.319 -0.913758C877 -0.913678 781.5 -1.6356e-06 903 -3.69812e-05Z" fill="#E9F5F3"/>
<path d="M471.948 98.4677C410.065 96.9317 356.022 88.1142 296.386 83.9031C236.885 79.7535 171.655 80.149 116.108 67.9441C60.4323 55.8039 -19.9998 -0.999898 5.00018 -0.999904C28.5002 -0.999906 29.5002 -0.999898 64.9998 -0.999899C103 -0.999897 160 -0.999898 199 -0.999906C237.999 -0.999915 214.499 -0.999945 259 -0.999945C303.5 -0.999945 374 -0.999953 431.5 -0.999943C486 -0.999934 451.5 -0.999904 505.5 -0.999904C559.5 -0.999904 560 -0.99991 591 -1.00005C625.5 -0.999858 725 -1.00005 693.5 -0.999936C681.776 30.8571 677.06 54.4166 640.308 74.3374C603.549 94.1321 533.831 100.004 471.948 98.4677Z" fill="url(#paint0_linear_0_1)"/>
<defs>
<linearGradient id="paint0_linear_0_1" x1="21.9999" y1="6.89419" x2="757.654" y2="247.252" gradientUnits="userSpaceOnUse">
<stop stop-color="#D8F3EA"/>
<stop offset="1" stop-color="#E9F5F3"/>
</linearGradient>
</defs>
</svg>
