<svg width="71" height="53" viewBox="0 0 71 53" fill="none" xmlns="http://www.w3.org/2000/svg">
<path d="M54.5071 5.43006C53.7142 4.89673 52.3337 4.10357 51.4315 3.66596C50.5294 3.21468 49.9143 2.85913 50.0646 2.85913C50.215 2.85913 51.0761 3.11896 51.9783 3.41981C52.8804 3.73434 54.261 4.3087 55.0538 4.70528C55.8466 5.11553 57.0222 5.79929 57.6783 6.23689C58.3344 6.6745 59.4006 7.49501 60.0567 8.05569C60.7265 8.61637 61.738 9.642 62.3394 10.3121C62.9272 10.9822 63.843 12.1856 64.3761 12.9787C64.9092 13.7719 65.6336 15.03 66.0027 15.7821C66.3581 16.5343 66.9049 17.9018 67.2192 18.818C67.52 19.7479 67.9027 21.2249 68.0667 22.1001C68.3128 23.4129 68.3674 24.206 68.3674 26.3804C68.3674 28.5547 68.3128 29.3479 68.0667 30.647C67.9027 31.5359 67.52 33.0128 67.2192 33.9291C66.9049 34.859 66.3581 36.2265 66.0027 36.9786C65.6336 37.7308 64.9092 38.9889 64.3761 39.782C63.843 40.5752 62.9272 41.7786 62.3394 42.4487C61.738 43.1188 60.7265 44.1444 60.0567 44.7051C59.4006 45.2658 58.3344 46.0863 57.6783 46.5239C57.0222 46.9615 55.8466 47.6452 55.0538 48.0555C54.261 48.4521 52.8668 49.0264 51.9373 49.341C51.0215 49.6555 50.2013 49.888 50.1193 49.8606C50.0236 49.8469 50.625 49.5051 51.4452 49.1085C52.2653 48.7119 53.6049 47.9324 54.4387 47.3717C55.2725 46.8247 56.5164 45.8538 57.2272 45.2247C57.938 44.5957 59.0042 43.5017 59.6056 42.7906C60.1934 42.0795 61.0545 40.9307 61.5056 40.2607C61.9567 39.5906 62.6811 38.2914 63.1185 37.3889C63.5559 36.4863 64.1027 35.1598 64.3351 34.4487C64.5674 33.7376 64.8818 32.6299 65.0185 31.9872C65.1689 31.3445 65.3603 30.3052 65.4559 29.6624C65.5516 29.0197 65.62 27.5154 65.62 26.312C65.62 24.9855 65.5243 23.5633 65.3876 22.6881C65.2646 21.8949 64.9912 20.5821 64.7588 19.7479C64.5401 18.9138 64.1574 17.724 63.8977 17.0813C63.638 16.4386 63.2279 15.5223 62.9818 15.03C62.7358 14.5377 62.23 13.6488 61.8473 13.0471C61.4783 12.4454 60.8905 11.5839 60.5488 11.1326C60.207 10.6813 59.5783 9.91551 59.1545 9.43688C58.7444 8.95825 57.8423 8.08304 57.1725 7.48133C56.5027 6.87962 55.2999 5.96339 54.5071 5.43006Z" fill="#D8F3EA"/>
<path d="M37.8994 0.848899C38.6512 0.657447 40.0044 0.397619 40.9066 0.260868C41.8087 0.124116 43.203 0.0147149 44.0231 0.00103974C44.8432 -0.0126354 46.3332 0.110441 47.4404 0.260868C48.5065 0.411294 50.1468 0.753173 51.09 0.999326C52.0331 1.25915 53.5367 1.77881 54.4389 2.16171C55.3411 2.54462 56.7216 3.24205 57.5144 3.72068C58.3072 4.18564 59.4691 4.97879 60.1115 5.45742C60.754 5.94973 61.7928 6.83861 62.4216 7.44032C63.0504 8.04203 64.0072 9.09501 64.554 9.7651C65.1007 10.4352 65.8935 11.5155 66.3036 12.1582C66.7137 12.801 67.4381 14.0864 67.8892 15.03C68.3403 15.9736 68.9281 17.3822 69.1878 18.1753C69.4338 18.9685 69.7755 20.2539 69.9396 21.0471C70.0899 21.8403 70.2813 23.071 70.3633 23.7821C70.4316 24.4932 70.5 25.6693 70.5 26.3804C70.5 27.0915 70.4316 28.2676 70.3633 28.9787C70.2813 29.6898 70.0899 30.9206 69.9396 31.7137C69.7755 32.5069 69.4338 33.7923 69.1741 34.5855C68.9144 35.3787 68.3403 36.7872 67.8892 37.7308C67.4245 38.6744 66.7137 39.9598 66.3036 40.6026C65.8935 41.2453 65.2101 42.1889 64.7863 42.7222C64.3626 43.2555 63.6245 44.1034 63.1187 44.6231C62.6266 45.1427 61.7108 46.0042 61.0684 46.5376C60.4259 47.0709 59.3871 47.8504 58.7446 48.2743C58.1022 48.6982 57.118 49.2863 56.5576 49.6008C55.9972 49.9017 54.8626 50.435 54.0288 50.7769C53.195 51.1051 51.8144 51.57 50.9533 51.8025C50.0921 52.0213 48.5065 52.3358 47.4404 52.4863C46.3605 52.6504 44.8979 52.7734 44.1871 52.7734C43.4763 52.7734 42.0411 52.6504 41.0159 52.4999C39.9771 52.3495 38.5145 52.076 37.7627 51.8846C37.0109 51.6931 35.808 51.3239 33.7987 50.5854H24.6404C15.6325 50.5991 15.4822 50.5854 15.1131 50.3119C14.8261 50.1068 14.7304 49.929 14.7304 49.5598C14.7304 49.2589 14.8397 48.9717 15.0038 48.8076C15.2635 48.5478 15.4549 48.5341 22.4534 48.5341C26.6361 48.5341 29.616 48.4794 29.6023 48.4111C29.5749 48.3427 28.9735 47.8367 28.2627 47.2897C27.5519 46.729 26.4858 45.8265 25.8843 45.2521C25.2965 44.6914 24.3671 43.6658 23.8203 42.9957C23.2735 42.3256 22.4671 41.2043 22.0297 40.5342C21.5922 39.8641 20.8815 38.565 20.4577 37.6624C20.034 36.7598 19.4872 35.4607 19.2685 34.7906C19.0498 34.1205 18.7081 32.8487 18.503 31.9872C18.3117 31.1257 18.093 29.7718 18.011 28.9787C17.9426 28.1855 17.8743 27.0095 17.8743 26.3531C17.8743 25.683 17.9426 24.5479 18.011 23.8231C18.093 23.0847 18.257 21.9907 18.3664 21.389C18.4894 20.7873 18.7354 19.7753 18.9131 19.1326C19.0908 18.4898 19.4325 17.4779 19.6649 16.8762C19.8973 16.2745 20.4577 15.0437 20.9225 14.1548C21.3872 13.2523 21.9613 12.3087 22.18 12.0625C22.4124 11.8164 22.7268 11.6249 22.9045 11.6112C23.0685 11.6112 23.3692 11.748 23.5606 11.9258C23.8066 12.1309 23.916 12.3634 23.916 12.6369C23.916 12.8694 23.6563 13.4574 23.3282 14.0044C23.0138 14.524 22.5081 15.4813 22.2073 16.124C21.9066 16.7668 21.4282 18.0249 21.1275 18.9274C20.8268 19.83 20.4714 21.2796 20.321 22.1411C20.1707 23.0026 20.0066 24.4796 19.9656 25.4231C19.9246 26.3941 19.9656 27.7753 20.0476 28.6368C20.1433 29.471 20.3347 30.7291 20.4851 31.4402C20.6354 32.1513 20.9771 33.3821 21.2368 34.1752C21.4966 34.9684 22.016 36.2265 22.385 36.9786C22.7541 37.7308 23.4786 38.9889 24.0117 39.782C24.5311 40.5752 25.4606 41.7923 26.062 42.4897C26.6771 43.1735 27.7433 44.2265 28.4404 44.8008C29.1239 45.3752 30.2857 46.2367 30.9965 46.7017C31.7073 47.1666 32.9375 47.8641 33.7303 48.247C34.5231 48.6162 35.808 49.1495 36.6008 49.4094C37.3936 49.6692 38.6785 50.0247 39.4713 50.2025C40.7425 50.476 41.2893 50.5034 44.1871 50.5034C47.085 50.5034 47.6317 50.476 48.9029 50.2025C49.6957 50.0247 51.0763 49.6418 51.9785 49.341C52.8806 49.0265 54.2612 48.4521 55.054 48.0555C55.8468 47.6453 57.0223 46.9615 57.6785 46.5239C58.3346 46.0863 59.4008 45.2658 60.0569 44.7051C60.7266 44.1444 61.7382 43.1188 62.3396 42.4487C62.9274 41.7786 63.8432 40.5752 64.3763 39.782C64.9094 38.9889 65.6338 37.7308 66.0029 36.9786C66.3583 36.2265 66.905 34.859 67.2194 33.9428C67.5201 33.0128 67.9029 31.5359 68.0669 30.6607C68.313 29.3479 68.3676 28.5548 68.3676 26.3804C68.3676 24.2061 68.313 23.4129 68.0669 22.1138C67.9029 21.2249 67.5201 19.748 67.2194 18.8317C66.905 17.9018 66.3583 16.5343 66.0029 15.7822C65.6338 15.03 64.9094 13.7719 64.3763 12.9788C63.8432 12.1856 62.9274 10.9822 62.3396 10.3121C61.7382 9.64202 60.7266 8.61638 60.0569 8.0557C59.4008 7.49502 58.3346 6.67451 57.6785 6.23691C57.0223 5.7993 55.8468 5.11555 55.054 4.70529C54.2612 4.30871 52.8806 3.73436 51.9785 3.41983C51.0763 3.11897 49.6957 2.73607 48.9029 2.55829C47.6454 2.29846 47.0713 2.25744 44.2555 2.24376C41.3987 2.24376 40.8792 2.28479 39.5397 2.55829C38.7195 2.73607 37.3936 3.09162 36.6008 3.35145C35.808 3.61128 34.5505 4.11726 33.7987 4.48649C33.0469 4.84204 32.008 5.40272 31.4749 5.73093C30.9555 6.04546 30.026 6.68819 29.4246 7.15314C28.8232 7.60442 27.7843 8.52066 27.1009 9.17706C26.0757 10.1754 25.8023 10.3668 25.4332 10.3805C25.1325 10.3805 24.8865 10.2711 24.7088 10.0796C24.5584 9.90185 24.4354 9.58732 24.4354 9.35484C24.4354 9.01296 24.6814 8.69843 25.9117 7.5087C26.7181 6.71554 27.8937 5.70358 28.5088 5.2523C29.1239 4.80102 29.6296 4.39076 29.6296 4.33606C29.6296 4.26769 26.4037 4.22666 22.4534 4.22666C15.4549 4.22666 15.2635 4.21299 15.0038 3.95316C14.8397 3.78906 14.7304 3.50188 14.7304 3.20102C14.7304 2.8318 14.8261 2.65402 15.0995 2.44889C15.4822 2.17539 15.6462 2.16171 33.7987 2.17539L35.1656 1.68308C35.9174 1.42326 37.1476 1.04035 37.8994 0.848899Z" fill="black"/>
<path d="M0.678641 22.2642C0.774324 22.1411 0.97936 21.9633 1.12972 21.8813C1.32109 21.7856 3.05705 21.7445 6.88438 21.7719C12.1606 21.7992 12.393 21.8129 12.6664 22.0727C12.8714 22.2642 12.9671 22.5103 12.9534 22.8659C12.9534 23.2351 12.8714 23.4266 12.6527 23.577C12.3793 23.7548 11.5045 23.7821 1.06137 23.7821L0.787993 23.4129C0.623965 23.1941 0.500944 22.9069 0.500944 22.7565C0.514613 22.6061 0.582958 22.3873 0.678641 22.2642Z" fill="black"/>
<path d="M0.500944 30.018C0.487275 29.8402 0.623965 29.5394 0.787993 29.3342L1.07504 28.9787H6.70668C11.5045 28.9787 12.3793 29.006 12.6527 29.1838C12.8714 29.3342 12.9534 29.5257 12.9534 29.9086C12.9671 30.2505 12.8714 30.4966 12.6664 30.6881C12.393 30.9479 12.1606 30.9616 7.02107 31.0026C4.08223 31.0163 1.53979 31.0026 1.37576 30.9616C1.19806 30.9206 0.938353 30.7701 0.787993 30.6197C0.637634 30.4693 0.514613 30.1958 0.500944 30.018Z" fill="black"/>
<path d="M39.471 2.59934C40.2638 2.44892 41.0976 2.29849 41.3163 2.25747C41.535 2.23011 43.0113 2.21644 44.5969 2.24379C46.5652 2.25747 47.8228 2.33952 48.6019 2.50362C49.217 2.62669 49.8048 2.7908 49.9005 2.85917C49.9825 2.94122 50.7343 3.32413 51.5681 3.73438C52.4019 4.13096 53.7141 4.89677 54.5069 5.4301C55.2997 5.96343 56.5026 6.87967 57.1724 7.48137C57.8422 8.08308 58.7443 8.95829 59.1544 9.43692C59.5781 9.91555 60.2069 10.6814 60.5486 11.1326C60.8904 11.5839 61.4781 12.4455 61.8472 13.0472C62.2299 13.6489 62.7357 14.5378 62.9817 15.0301C63.2278 15.5224 63.6378 16.4386 63.8975 17.0813C64.1572 17.7241 64.54 18.9138 64.7587 19.748C64.9911 20.5822 65.2644 21.895 65.3875 22.6881C65.5242 23.5634 65.6198 24.9856 65.6198 26.3121C65.6198 27.5155 65.5515 29.0197 65.4558 29.6625C65.3601 30.3052 65.1688 31.3445 65.0184 31.9872C64.8817 32.63 64.5673 33.7377 64.3349 34.4488C64.1026 35.1599 63.5558 36.4864 63.1184 37.3889C62.681 38.2915 61.9565 39.5906 61.5055 40.2607C61.0544 40.9308 60.1932 42.0795 59.6055 42.7906C59.004 43.5017 57.9378 44.5957 57.2271 45.2248C56.5163 45.8538 55.2997 46.7974 54.5069 47.3308C53.7141 47.8641 52.4019 48.6299 51.5681 49.0402C50.7343 49.4504 50.0098 49.8333 49.9278 49.9017C49.8458 49.9701 49.2307 50.1342 48.5609 50.2709C47.5631 50.4624 46.7019 50.5171 44.1185 50.5171C41.3026 50.5034 40.7285 50.4624 39.471 50.2025C38.6782 50.0248 37.3933 49.6692 36.6005 49.4094C35.8077 49.1496 34.5228 48.6162 33.73 48.247C32.9372 47.8641 31.707 47.1667 30.9962 46.7017C30.2854 46.2367 29.1235 45.3752 28.4401 44.8009C27.743 44.2265 26.6768 43.1735 26.0617 42.4898C25.4603 41.7923 24.5308 40.5752 24.0113 39.7821C23.4782 38.9889 22.7538 37.7308 22.3847 36.9787C22.0157 36.2265 21.4962 34.9684 21.2365 34.1753C20.9768 33.3821 20.6351 32.1513 20.4847 31.4402C20.3344 30.7291 20.143 29.471 20.0473 28.6368C19.9653 27.7753 19.9243 26.3941 19.9653 25.4232C20.0063 24.4796 20.1703 23.0027 20.3207 22.1411C20.4711 21.2796 20.8265 19.83 21.1272 18.9275C21.4279 18.0249 21.9063 16.7668 22.207 16.1241C22.5077 15.4813 23.0135 14.5378 23.3279 14.0044C23.6423 13.4848 23.9157 12.8831 23.9293 12.6779C23.943 12.4865 23.8473 12.1993 23.7243 12.0352C23.4919 11.7617 23.4919 11.7207 24.5718 10.2438L25.7883 10.4489L27.0595 9.21812C27.7566 8.53436 28.8228 7.60445 29.4243 7.15317C30.0257 6.68821 30.9552 6.04548 31.4746 5.73095C31.994 5.40275 33.0466 4.84207 33.7984 4.48651C34.5501 4.11729 35.8077 3.61131 36.6005 3.35148C37.3933 3.09165 38.6782 2.74977 39.471 2.59934Z" fill="#42B093"/>
<path fill-rule="evenodd" clip-rule="evenodd" d="M44.5975 5.94977C44.8982 5.97712 45.6364 6.03182 46.2378 6.07285C46.8392 6.11388 47.9738 6.29165 48.7666 6.46943C49.5594 6.64721 50.7896 7.01644 51.5004 7.28994C52.2112 7.57712 53.291 8.06942 53.8924 8.39763C54.4939 8.72583 55.4507 9.31386 56.0111 9.71044C56.5716 10.107 57.5831 10.9686 58.2529 11.6113C58.9226 12.254 59.8385 13.266 60.3032 13.8677C60.768 14.4694 61.3011 15.2079 61.4924 15.5087C61.6975 15.8096 62.1349 16.6301 62.4903 17.3275C62.832 18.0113 63.2967 19.1189 63.5291 19.789C63.7478 20.4454 64.0212 21.4164 64.1305 21.936C64.2399 22.4694 64.4039 23.4266 64.4723 24.0967C64.5953 25.0129 64.5816 25.3685 64.4586 25.6283C64.3629 25.8198 64.0895 26.0386 63.8708 26.1343C63.5701 26.2437 63.3787 26.2437 63.16 26.1206C62.9823 26.0386 62.791 25.8334 62.709 25.6693C62.6406 25.4916 62.4903 24.6437 62.3672 23.7822C62.2442 22.9206 61.9572 21.6215 61.7248 20.9104C61.4924 20.1993 61.1234 19.2147 60.9047 18.7224C60.6859 18.2301 60.2759 17.4643 60.0162 17.013C59.7428 16.5617 59.1413 15.7002 58.6766 15.0984C58.2119 14.4967 57.3097 13.5258 56.6809 12.9241C56.0521 12.3361 55.0406 11.5292 54.4392 11.1327C53.8378 10.7361 52.8809 10.1754 52.3205 9.90189C51.7601 9.61471 50.6802 9.19078 49.9284 8.93096C49.1766 8.6848 48.0011 8.38395 47.3313 8.26087C46.5932 8.1378 45.322 8.04207 44.1874 8.04207C43.0529 8.04207 41.7817 8.1378 41.0436 8.26087C40.3738 8.38395 39.1982 8.6848 38.4464 8.93096C37.6947 9.19078 36.6148 9.61471 36.0544 9.90189C35.4939 10.1754 34.5098 10.7634 33.8673 11.1874C33.2249 11.6113 32.0493 12.5959 31.2565 13.3891C30.3407 14.3053 29.4932 15.3173 28.9055 16.1925C28.4134 16.9446 27.7983 18.0249 27.5386 18.5856C27.2789 19.1463 26.9098 20.1036 26.7184 20.7053C26.5271 21.307 26.2537 22.3189 26.117 22.9617C25.9393 23.7958 25.871 24.7531 25.871 26.3804C25.871 28.0078 25.9393 28.9651 26.117 29.7992C26.2537 30.442 26.5271 31.4539 26.7184 32.0556C26.9098 32.6573 27.2789 33.6146 27.5386 34.1753C27.7983 34.736 28.3997 35.7889 28.8645 36.5001C29.3429 37.2112 30.2177 38.3189 30.8055 38.9479C31.4069 39.577 32.4731 40.5342 33.1839 41.0676C33.8947 41.6009 35.0429 42.3257 35.7126 42.6812C36.3824 43.0368 37.5853 43.5291 38.3781 43.8026C39.1709 44.0624 40.3738 44.3769 41.0436 44.5C41.7817 44.6231 43.0529 44.7188 44.1874 44.7188C45.322 44.7188 46.5932 44.6231 47.3313 44.5C48.0011 44.3769 49.204 44.0624 49.9968 43.8026C50.7896 43.5428 52.0198 43.0094 52.7306 42.6402C53.4414 42.271 54.5486 41.5735 55.191 41.0949C55.8334 40.6163 56.8723 39.6727 57.5147 39.0026C58.1572 38.3325 59.0047 37.2932 59.4011 36.7052C59.7975 36.1035 60.3989 35.0505 60.727 34.3804C61.055 33.7103 61.4787 32.6573 61.6701 32.0556C61.8615 31.4539 62.0802 30.6197 62.1622 30.2095C62.2442 29.7992 62.3399 29.3206 62.3672 29.1565C62.4082 28.9787 62.5586 28.7189 62.709 28.5685C62.8593 28.418 63.16 28.295 63.3924 28.295C63.6248 28.295 63.9255 28.418 64.0759 28.5685C64.2672 28.7599 64.3492 29.0198 64.3492 29.43C64.3492 29.7445 64.1989 30.5924 64.0212 31.3035C63.8298 32.0146 63.5428 32.9992 63.3514 33.4915C63.1737 33.9838 62.7636 34.9001 62.4356 35.5428C62.1212 36.1855 61.5061 37.2248 61.0823 37.8676C60.6586 38.4966 59.7018 39.659 58.95 40.4385C58.1982 41.2317 57.0637 42.2573 56.4212 42.7359C55.7788 43.2146 54.6989 43.912 54.0291 44.2949C53.3593 44.6641 52.1565 45.2111 51.3637 45.512C50.5709 45.7992 49.3133 46.1821 48.5615 46.3462C47.8097 46.5103 46.5248 46.688 45.691 46.7427C44.8572 46.7974 43.545 46.7974 42.7522 46.7427C41.9594 46.688 40.7975 46.5513 40.1551 46.4145C39.5126 46.2915 38.4328 45.9906 37.763 45.7718C37.0932 45.553 35.9724 45.1017 35.3026 44.7872C34.6328 44.459 33.4846 43.8026 32.7738 43.324C31.9537 42.777 30.8601 41.847 29.8213 40.8077C28.7141 39.7 27.8803 38.7154 27.2652 37.7992C26.7731 37.0471 26.0897 35.8437 25.7479 35.1325C25.4199 34.4214 24.9825 33.3685 24.7911 32.8078C24.6134 32.2471 24.3127 31.1394 24.1487 30.3462C23.8889 29.1428 23.8343 28.4864 23.8343 26.3804C23.8343 24.2745 23.8889 23.6181 24.1487 22.4147C24.3127 21.6215 24.6134 20.5138 24.7911 19.9531C24.9825 19.3924 25.4199 18.3395 25.7479 17.6284C26.0897 16.9172 26.7731 15.7138 27.2652 14.9617C27.8803 14.0455 28.7141 13.0609 29.8213 11.9532C30.8601 10.9139 31.9537 9.98394 32.7738 9.43694C33.4846 8.95831 34.6328 8.3019 35.3026 7.9737C35.9724 7.65917 37.0932 7.20789 37.763 6.98909C38.4328 6.75661 39.4853 6.46943 40.0867 6.34635C40.6882 6.22328 41.8227 6.07285 42.6155 6.01815C43.4083 5.96345 44.2968 5.9361 44.5975 5.94977ZM5.54512 9.69677H11.2041C16.6717 9.68309 16.8631 9.69677 17.2321 9.97027C17.5055 10.1754 17.6012 10.3532 17.6012 10.7224C17.6012 11.0233 17.4918 11.3104 17.3278 11.4745C17.0681 11.7344 16.8631 11.748 11.2861 11.748C5.92785 11.7617 5.47677 11.748 5.20339 11.5156C5.03936 11.3788 4.86167 11.1053 4.82066 10.9002C4.76598 10.5993 4.848 10.4215 5.14872 10.107L5.54512 9.69677ZM14.0609 16.6711C15.3321 16.6711 16.5077 16.7395 16.6717 16.8078C16.8494 16.8899 17.0544 17.095 17.1501 17.2865C17.2458 17.4779 17.3278 17.7104 17.3278 17.8061C17.3278 17.8882 17.2048 18.1343 16.7811 18.7224H14.1839C11.7645 18.7224 11.5595 18.7087 11.3134 18.4489C11.1494 18.2848 11.0264 17.9839 11.0264 17.7104C11.0127 17.3412 11.0947 17.1771 11.3818 16.9583C11.7372 16.6984 11.9422 16.6711 14.0609 16.6711ZM58.3349 25.4232C59.3737 25.4232 59.6061 25.4642 59.8385 25.6967C59.9888 25.8471 60.1118 26.1206 60.1118 26.3121C60.1118 26.5035 60.0435 26.777 59.9752 26.9275C59.8931 27.0779 59.6334 27.2693 59.3874 27.3377C59.1413 27.4198 58.6766 27.4745 58.3349 27.4745C57.9931 27.4745 57.5147 27.4198 57.2687 27.3377C57.0226 27.2693 56.7629 27.0779 56.6946 26.9275C56.6126 26.777 56.5579 26.5035 56.5579 26.3121C56.5579 26.1206 56.6809 25.8471 56.8313 25.6967C57.0637 25.4642 57.2824 25.4232 58.3349 25.4232ZM16.7811 34.0385L17.0544 34.4214C17.2048 34.6266 17.3278 34.9001 17.3278 35.0368C17.3278 35.1599 17.1501 35.4607 16.5213 36.0898H14.1566C11.9832 36.1035 11.7509 36.0761 11.4091 35.8163C11.1221 35.6112 11.0401 35.4334 11.0401 35.0642C11.0401 34.7633 11.1357 34.4761 11.3134 34.312C11.5595 34.0522 11.7645 34.0385 16.7811 34.0385ZM11.2588 41.0129C16.8631 41.0129 17.0544 41.0265 17.3278 41.2864C17.4918 41.4505 17.6012 41.7376 17.6012 42.0385C17.6012 42.4077 17.5055 42.5855 17.2185 42.7906C16.8631 43.0641 16.6717 43.0778 5.57246 43.0641L5.16239 42.6539C4.83433 42.3393 4.76598 42.1616 4.82066 41.8744C4.86167 41.6556 5.0257 41.3821 5.17606 41.259C5.44944 41.0265 5.94152 41.0129 11.2588 41.0129Z" fill="black"/>
<path d="M49.6277 9.16334C49.1493 8.93086 48.7666 8.71206 48.7666 8.67104C48.7666 8.63001 48.8213 8.60266 48.9033 8.60266C48.9853 8.60266 49.5731 8.79411 50.2292 9.02659C50.899 9.25907 51.8558 9.66932 52.3889 9.92915C52.922 10.189 53.8378 10.736 54.4392 11.1326C55.0407 11.5291 56.0522 12.336 56.681 12.924C57.3097 13.5257 58.2119 14.4967 58.6766 15.0984C59.1414 15.7001 59.7428 16.5616 60.0162 17.0129C60.2759 17.4642 60.686 18.23 60.9047 18.7223C61.1234 19.2146 61.4925 20.1992 61.7248 20.9103C61.9572 21.6214 62.2443 22.9479 62.3673 23.8505C62.504 24.753 62.6953 25.6282 62.791 25.806C62.9004 25.9701 63.1327 26.1342 63.3241 26.1752C63.6112 26.2299 63.6658 26.312 63.6658 26.7633C63.6658 27.0368 63.6112 27.5017 63.5565 27.7752C63.4745 28.1855 63.3925 28.2949 63.0917 28.3496C62.873 28.4043 62.6407 28.5684 62.545 28.7462C62.463 28.9103 62.3126 29.4709 62.2032 30.0043C62.1076 30.5376 61.8615 31.4538 61.6702 32.0555C61.4788 32.6572 61.0551 33.7102 60.727 34.3803C60.3989 35.0504 59.7975 36.1034 59.4011 36.7051C59.0047 37.2931 58.1572 38.3324 57.5148 39.0025C56.8723 39.6726 55.8335 40.6162 55.191 41.0948C54.5486 41.5734 53.4414 42.2709 52.7306 42.6401C52.0198 43.0093 50.8716 43.5016 50.2018 43.7341C49.5321 43.9803 48.917 44.1444 48.8349 44.117C48.7529 44.0897 49.0947 43.8709 49.5867 43.6247C50.0788 43.3786 50.9947 42.8316 51.6371 42.4076C52.3069 41.9563 53.4551 40.9717 54.3709 40.0555C55.2867 39.1393 56.2709 38.0042 56.722 37.3205C57.132 36.6777 57.7335 35.6658 58.0342 35.0641C58.3349 34.4624 58.7723 33.4094 59.0047 32.7393C59.2507 32.0692 59.5651 30.8932 59.7292 30.141C59.9615 29.047 60.0162 28.2949 60.0162 26.3804C60.0162 24.4658 59.9615 23.7137 59.7292 22.6197C59.5651 21.8676 59.2507 20.6915 59.0184 20.0214C58.7723 19.3513 58.2529 18.1479 57.8428 17.3548C57.4328 16.5616 56.7083 15.3992 56.2299 14.7565C55.7515 14.1137 54.781 13.0334 54.0839 12.3633C53.3731 11.6932 52.2795 10.7907 51.6371 10.3531C50.9947 9.92915 50.0925 9.39582 49.6277 9.16334Z" fill="#DAF1F4"/>
<path d="M40.3593 8.39755C40.9607 8.2608 42.0406 8.11037 42.7514 8.06935C43.4621 8.01465 44.5147 8.00097 45.0751 8.02832C45.6355 8.05567 46.6607 8.16508 47.3305 8.27448C48.0003 8.38388 48.6564 8.56165 48.7657 8.65738C48.8751 8.75311 49.3125 8.99926 49.7226 9.20439C50.1326 9.42319 50.9938 9.94284 51.6362 10.3668C52.2787 10.7907 53.3722 11.6933 54.083 12.3633C54.7801 13.0334 55.7506 14.1138 56.229 14.7565C56.7074 15.3992 57.4319 16.5616 57.842 17.3548C58.252 18.1479 58.7715 19.3513 59.0175 20.0214C59.2499 20.6915 59.5506 21.8402 59.7009 22.5513C59.8376 23.2624 60.0017 24.3428 60.152 26.0385L59.865 25.7376C59.5916 25.4505 59.4276 25.4231 58.334 25.4231C57.2815 25.4231 57.0628 25.4641 56.8304 25.6966C56.6801 25.847 56.5571 26.1205 56.5571 26.312C56.5571 26.5035 56.6117 26.777 56.6938 26.9274C56.7758 27.0778 57.0355 27.2693 57.2815 27.3376C57.5139 27.4197 58.006 27.4744 58.375 27.4744C58.7304 27.4744 59.1815 27.406 59.4002 27.3376C59.6053 27.2556 59.8513 27.0778 59.947 26.9547C60.111 26.7633 60.1247 26.8864 60.0427 27.8163C59.988 28.418 59.8376 29.4983 59.7009 30.2094C59.5506 30.9205 59.2499 32.0692 59.0038 32.7393C58.7714 33.4094 58.334 34.4624 58.0333 35.0641C57.7326 35.6658 57.1312 36.6778 56.7211 37.3205C56.27 38.0043 55.2858 39.1393 54.37 40.0555C53.4542 40.9718 52.3197 41.9564 51.6362 42.4076C50.9938 42.8179 50.1326 43.3376 49.7226 43.5564C49.3125 43.7615 48.8751 44.0076 48.7657 44.1034C48.6564 44.1991 48.0003 44.3769 47.3305 44.4999C46.5924 44.623 45.3348 44.7188 44.1866 44.7188C43.0521 44.7188 41.7809 44.623 41.0427 44.4999C40.3729 44.3769 39.1701 44.0623 38.3773 43.8025C37.5845 43.529 36.3816 43.0367 35.7118 42.6812C35.042 42.3256 33.8938 41.6008 33.183 41.0675C32.4723 40.5342 31.4061 39.5769 30.8046 38.9478C30.2169 38.3188 29.342 37.2111 28.8636 36.5C28.3989 35.7889 27.7974 34.7359 27.5377 34.1752C27.278 33.6145 26.909 32.6573 26.7176 32.0556C26.5262 31.4539 26.2528 30.4419 26.1162 29.7992C25.9385 28.965 25.8701 28.0077 25.8701 26.3804C25.8701 24.753 25.9385 23.7958 26.1162 22.9616C26.2528 22.3189 26.5262 21.3069 26.7176 20.7052C26.909 20.1035 27.278 19.1462 27.5377 18.5855C27.7974 18.0249 28.4126 16.9445 28.9046 16.1924C29.4924 15.3172 30.3399 14.3052 31.2557 13.389C32.0485 12.5958 33.2241 11.6112 33.8665 11.1873C34.5089 10.7634 35.4521 10.189 35.9852 9.92917C36.5183 9.66934 37.4614 9.27276 38.1039 9.04028C38.7463 8.82148 39.7578 8.52063 40.3593 8.39755Z" fill="#F4FBFF"/>
<path d="M43.326 10.9138C43.4216 10.7907 43.6267 10.6266 43.777 10.5446C43.9274 10.4625 44.0914 10.3805 44.1461 10.3805C44.2144 10.3805 44.4195 10.4625 44.6245 10.5719C44.8432 10.6677 45.0483 10.8591 45.1029 10.9822C45.1713 11.1053 45.2123 11.6933 45.2123 12.295C45.2123 13.2659 45.1713 13.4301 44.8706 13.7309C44.6929 13.9224 44.3785 14.0728 44.1871 14.0728C43.9957 14.0728 43.695 13.9224 43.5037 13.7309C43.1893 13.4164 43.1619 13.2796 43.1619 12.2677C43.1619 11.5566 43.2166 11.0506 43.326 10.9138Z" fill="black"/>
<path d="M32.8008 15.2899C32.8965 15.1394 33.0879 14.9617 33.2519 14.8933C33.4022 14.8249 33.5663 14.7702 33.621 14.7702C33.6893 14.7565 33.8943 14.8386 34.0994 14.948C34.3181 15.0437 34.7691 15.4403 35.1245 15.8369C35.4936 16.2335 35.7807 16.6711 35.7807 16.8488C35.7943 17.0129 35.6713 17.3138 35.5073 17.5326C35.2886 17.8198 35.1245 17.9018 34.7145 17.9018C34.2771 17.9018 34.113 17.7924 33.4296 17.0813C32.8965 16.5343 32.6368 16.1514 32.6368 15.9189C32.6368 15.7275 32.7051 15.454 32.8008 15.2899Z" fill="black"/>
<path d="M53.236 15.8232C53.523 15.5223 53.9468 15.1394 54.1655 15.0027C54.4252 14.8523 54.7122 14.7839 54.9173 14.8249C55.1087 14.8659 55.3684 15.0437 55.5051 15.2078C55.6417 15.3719 55.7511 15.7001 55.7374 15.9189C55.7374 16.2335 55.5324 16.5206 54.9446 17.1223C54.2338 17.8334 54.1245 17.9018 53.6324 17.8745C53.2497 17.8471 53.0173 17.7377 52.8259 17.4916C52.6482 17.2591 52.5935 17.0403 52.6482 16.7805C52.6892 16.5617 52.9626 16.1377 53.236 15.8232Z" fill="black"/>
<path d="M43.326 17.2044C43.4216 17.0813 43.6267 16.9035 43.777 16.8215C43.9274 16.7394 44.2008 16.7121 44.3921 16.7394C44.5835 16.7805 44.8432 16.9582 44.9799 17.1223C45.1986 17.3958 45.2259 17.7787 45.2123 25.4232H49.1763L49.4497 25.8061C49.6137 26.0112 49.7367 26.2847 49.7231 26.4214C49.7231 26.5445 49.5727 26.818 49.395 27.0368C49.0672 27.4058 49.0533 27.4061 46.9665 27.447L46.9619 27.4471C45.8137 27.4744 44.6108 27.4608 44.2828 27.4197C43.9411 27.365 43.5993 27.2146 43.4353 27.0368C43.1619 26.736 43.1619 26.5445 43.1619 22.0727C43.1619 18.5309 43.2029 17.3685 43.326 17.2044Z" fill="black"/>
<path d="M28.2627 26.3804C28.2627 26.1479 28.3857 25.8471 28.5361 25.6967C28.7684 25.4642 28.9872 25.4232 30.108 25.4232C31.2972 25.4232 31.4202 25.4505 31.6116 25.7377C31.721 25.9018 31.8166 26.189 31.8303 26.3804C31.8303 26.5719 31.721 26.859 31.5843 27.0368C31.4066 27.2693 31.1469 27.365 30.5864 27.4334C30.1764 27.4744 29.6023 27.4744 29.3152 27.4197C29.0418 27.3787 28.6864 27.2146 28.5361 27.0642C28.3857 26.9137 28.2627 26.6129 28.2627 26.3804Z" fill="black"/>
<path d="M32.6641 36.8693C32.6778 36.6231 32.9648 36.2129 33.4569 35.6795C34.1267 34.9684 34.2907 34.859 34.7281 34.859C35.1245 34.859 35.3022 34.9411 35.5073 35.2419C35.6713 35.447 35.7943 35.7479 35.7807 35.9257C35.7807 36.0898 35.4936 36.5274 35.1245 36.924C34.7691 37.3205 34.3181 37.7171 34.0994 37.8128C33.867 37.9359 33.5936 37.9633 33.3612 37.9086C33.1699 37.8402 32.9238 37.6761 32.8145 37.5257C32.7188 37.3752 32.6505 37.0744 32.6641 36.8693Z" fill="black"/>
<path d="M52.5799 35.7616C52.5662 35.6658 52.7029 35.4197 52.8669 35.2146C53.0856 34.9411 53.277 34.859 53.6597 34.859C54.0835 34.8727 54.2885 34.9821 54.9446 35.6522C55.5461 36.2402 55.7238 36.5274 55.7374 36.8419C55.7374 37.0607 55.6554 37.3752 55.5597 37.5257C55.4504 37.6761 55.2043 37.8402 55.013 37.9086C54.7943 37.9633 54.5209 37.9359 54.3295 37.8539C54.1655 37.7718 53.7964 37.471 53.5094 37.1975C53.2223 36.924 52.8943 36.5411 52.7849 36.3359C52.6756 36.1171 52.5935 35.871 52.5799 35.7616Z" fill="black"/>
<path d="M43.1619 40.4658C43.1756 39.4812 43.2166 39.3171 43.5037 39.0299C43.6813 38.8385 43.9957 38.6881 44.1871 38.6881C44.3785 38.6881 44.6792 38.8385 44.8706 39.0299C45.1713 39.3445 45.2123 39.4812 45.2123 40.4658C45.2123 41.0675 45.1713 41.6556 45.1029 41.7786C45.0483 41.9017 44.8159 42.0932 44.5972 42.2026C44.2554 42.3667 44.1188 42.3803 43.7907 42.2162C43.572 42.1205 43.3396 41.9291 43.2849 41.806C43.2166 41.6692 43.1619 41.0675 43.1619 40.4658Z" fill="black"/>
</svg>
