<svg width="67" height="22" viewBox="0 0 67 22" fill="none" xmlns="http://www.w3.org/2000/svg">
<path d="M8.8199 0.171875V18.5312C8.8199 18.9375 8.89803 19.2292 9.05428 19.4062C9.13761 19.5104 9.21573 19.5781 9.28865 19.6094C9.36157 19.6302 9.60115 19.6927 10.0074 19.7969C10.5074 19.9115 10.7574 20.1979 10.7574 20.6562C10.7574 20.9271 10.622 21.1458 10.3512 21.3125C10.1532 21.4375 9.82511 21.5 9.36678 21.5H8.83553H1.86678H1.46053C1.08553 21.5 0.793859 21.4323 0.585526 21.2969C0.387609 21.151 0.288651 20.9479 0.288651 20.6875C0.288651 20.2604 0.496984 19.9792 0.913651 19.8438C1.2574 19.7292 1.45532 19.6615 1.5074 19.6406C1.5699 19.6094 1.6324 19.5469 1.6949 19.4531C1.8199 19.2865 1.8824 19.0208 1.8824 18.6562V3.01562C1.8824 2.65104 1.8199 2.38542 1.6949 2.21875C1.6324 2.125 1.5699 2.06771 1.5074 2.04688C1.45532 2.01562 1.2574 1.94271 0.913651 1.82812C0.496984 1.69271 0.288651 1.41146 0.288651 0.984375C0.288651 0.723958 0.387609 0.526042 0.585526 0.390625C0.793859 0.244792 1.08553 0.171875 1.46053 0.171875H1.86678H8.8199ZM10.1949 0.171875H16.4918V5.625C16.4918 5.97917 16.4293 6.23438 16.3043 6.39062C16.1793 6.54688 15.9762 6.625 15.6949 6.625C15.4866 6.625 15.3199 6.57292 15.1949 6.46875C15.0803 6.35417 14.9814 6.16667 14.898 5.90625C14.7418 5.39583 14.5387 4.92708 14.2887 4.5C14.0387 4.07292 13.7574 3.70833 13.4449 3.40625C13.0178 2.98958 12.5491 2.67188 12.0387 2.45312C11.5282 2.23438 10.9137 2.08333 10.1949 2V0.171875ZM10.1168 11.5469V9.73438C10.7314 9.44271 11.1793 9.13021 11.4605 8.79688C11.7522 8.45312 11.9657 7.98958 12.1012 7.40625C12.1845 7.01042 12.2939 6.73958 12.4293 6.59375C12.5647 6.4375 12.7574 6.35938 13.0074 6.35938C13.3407 6.35938 13.5699 6.48958 13.6949 6.75C13.7678 6.88542 13.8043 7.19271 13.8043 7.67188V13.625C13.8043 14.1146 13.747 14.4531 13.6324 14.6406C13.5282 14.8281 13.3303 14.9219 13.0387 14.9219C12.7991 14.9219 12.6116 14.849 12.4762 14.7031C12.3407 14.5573 12.2314 14.3125 12.148 13.9688C11.9605 13.25 11.7053 12.6979 11.3824 12.3125C11.0595 11.9271 10.6376 11.6719 10.1168 11.5469ZM26.9605 21.5H19.9918H19.5855C19.2105 21.5 18.9189 21.4323 18.7105 21.2969C18.5126 21.151 18.4137 20.9479 18.4137 20.6875C18.4137 20.2604 18.622 19.9792 19.0387 19.8438C19.3824 19.7292 19.5803 19.6615 19.6324 19.6406C19.6949 19.6094 19.7574 19.5469 19.8199 19.4531C19.9449 19.2865 20.0074 19.0208 20.0074 18.6562V3.01562C20.0074 2.65104 19.9449 2.38542 19.8199 2.21875C19.7574 2.125 19.6949 2.06771 19.6324 2.04688C19.5803 2.01562 19.3824 1.94271 19.0387 1.82812C18.622 1.69271 18.4137 1.41146 18.4137 0.984375C18.4137 0.723958 18.5126 0.526042 18.7105 0.390625C18.9189 0.244792 19.2105 0.171875 19.5855 0.171875H19.9918H26.9605H27.3668C27.7418 0.171875 28.0282 0.244792 28.2262 0.390625C28.4345 0.526042 28.5387 0.723958 28.5387 0.984375C28.5387 1.41146 28.3303 1.69271 27.9137 1.82812C27.5699 1.94271 27.3668 2.01562 27.3043 2.04688C27.2522 2.06771 27.1949 2.125 27.1324 2.21875C27.0074 2.38542 26.9449 2.65104 26.9449 3.01562V18.6562C26.9449 19.0208 27.0074 19.2865 27.1324 19.4531C27.1949 19.5469 27.2522 19.6094 27.3043 19.6406C27.3668 19.6615 27.5699 19.7292 27.9137 19.8438C28.3303 19.9792 28.5387 20.2604 28.5387 20.6875C28.5387 20.9479 28.4345 21.151 28.2262 21.2969C28.0282 21.4323 27.7418 21.5 27.3668 21.5H26.9605ZM42.7887 16.0312L41.3043 21.5H37.1949L31.6324 2.82812C31.5491 2.54688 31.4709 2.35938 31.398 2.26562C31.3251 2.16146 31.2105 2.07292 31.0543 2C30.7209 1.86458 30.5022 1.73958 30.398 1.625C30.2939 1.51042 30.2418 1.33854 30.2418 1.10938C30.2418 0.796875 30.3824 0.552083 30.6637 0.375C30.8824 0.239583 31.2418 0.171875 31.7418 0.171875H38.6949C39.1324 0.171875 39.4293 0.182292 39.5855 0.203125C39.7522 0.223958 39.8876 0.265625 39.9918 0.328125C40.0959 0.401042 40.1845 0.505208 40.2574 0.640625C40.3303 0.776042 40.3668 0.90625 40.3668 1.03125C40.3668 1.41667 40.1845 1.69271 39.8199 1.85938C39.5491 1.99479 39.3616 2.13542 39.2574 2.28125C39.1637 2.41667 39.1168 2.61458 39.1168 2.875C39.1168 3.04167 39.1324 3.1875 39.1637 3.3125L42.7887 16.0312ZM43.3824 13.7969L42.5543 10.8594L44.3512 4.28125C44.4657 3.86458 44.5282 3.60938 44.5387 3.51562C44.5595 3.28646 44.5074 3.03125 44.3824 2.75C44.2157 2.38542 43.9553 2.14583 43.6012 2.03125L43.0855 1.84375C42.6793 1.70833 42.4762 1.44271 42.4762 1.04688C42.4762 0.765625 42.5907 0.552083 42.8199 0.40625C43.0491 0.25 43.3668 0.171875 43.773 0.171875H47.6012C48.0803 0.171875 48.3928 0.21875 48.5387 0.3125C48.7887 0.46875 48.9137 0.692708 48.9137 0.984375C48.9137 1.18229 48.872 1.33854 48.7887 1.45312C48.7157 1.56771 48.5751 1.67188 48.3668 1.76562L47.5699 2.14062C47.2366 2.29688 46.9137 2.60938 46.6012 3.07812C46.2991 3.53646 46.0647 4.0625 45.898 4.65625L43.3824 13.7969ZM58.9449 0.171875V21.5H51.9918H51.5855C51.2105 21.5 50.9189 21.4323 50.7105 21.2969C50.5126 21.151 50.4137 20.9479 50.4137 20.6875C50.4137 20.2604 50.622 19.9792 51.0387 19.8438C51.3824 19.7292 51.5803 19.6615 51.6324 19.6406C51.6949 19.6094 51.7574 19.5469 51.8199 19.4531C51.9449 19.2865 52.0074 19.0208 52.0074 18.6562V3.01562C52.0074 2.65104 51.9449 2.38542 51.8199 2.21875C51.7574 2.125 51.6949 2.06771 51.6324 2.04688C51.5803 2.01562 51.3824 1.94271 51.0387 1.82812C50.622 1.69271 50.4137 1.41146 50.4137 0.984375C50.4137 0.723958 50.5126 0.526042 50.7105 0.390625C50.9189 0.244792 51.2105 0.171875 51.5855 0.171875H51.9918H58.9449ZM60.3355 0.171875H66.6324V5.70312C66.6324 6.02604 66.5699 6.26042 66.4449 6.40625C66.3199 6.55208 66.122 6.625 65.8512 6.625C65.622 6.625 65.4553 6.57812 65.3512 6.48438C65.247 6.39062 65.148 6.19792 65.0543 5.90625C64.6584 4.69792 64.0751 3.77604 63.3043 3.14062C62.5439 2.50521 61.5543 2.125 60.3355 2V0.171875ZM60.2574 11.5469V9.73438C60.8616 9.44271 61.3095 9.125 61.6012 8.78125C61.8928 8.4375 62.1064 7.97917 62.2418 7.40625C62.3251 7.01042 62.4345 6.73958 62.5699 6.59375C62.7053 6.4375 62.898 6.35938 63.148 6.35938C63.4814 6.35938 63.7105 6.48958 63.8355 6.75C63.9084 6.88542 63.9449 7.19271 63.9449 7.67188V13.625C63.9449 14.1146 63.8876 14.4531 63.773 14.6406C63.6689 14.8281 63.4709 14.9219 63.1793 14.9219C62.9397 14.9219 62.7522 14.849 62.6168 14.7031C62.4814 14.5573 62.372 14.3125 62.2887 13.9688C62.1116 13.25 61.8564 12.6979 61.523 12.3125C61.2001 11.9271 60.7782 11.6719 60.2574 11.5469ZM60.3512 21.5V19.8125C61.0282 19.7083 61.5855 19.5625 62.023 19.375C62.4709 19.1875 62.9189 18.901 63.3668 18.5156C63.8147 18.1302 64.1689 17.7344 64.4293 17.3281C64.7001 16.9115 64.9553 16.3646 65.1949 15.6875C65.3095 15.3542 65.4293 15.1302 65.5543 15.0156C65.6793 14.8906 65.8512 14.8281 66.0699 14.8281C66.3616 14.8281 66.5647 14.9167 66.6793 15.0938C66.7939 15.2604 66.8512 15.5573 66.8512 15.9844V21.5H60.3512Z" fill="#42B093"/>
</svg>
