<svg width="71" height="70" viewBox="0 0 71 70" fill="none" xmlns="http://www.w3.org/2000/svg">
<path d="M24.9287 13.9862C25.6042 13.8622 26.7346 13.7106 27.4101 13.6555C28.0855 13.5866 29.0505 13.5315 29.5467 13.5177C30.043 13.5177 31.1596 13.5728 32.0281 13.6555C32.8965 13.7244 34.3577 13.9449 35.2676 14.124C36.1774 14.3031 37.6662 14.7165 38.576 15.0197C39.4858 15.3366 40.9057 15.9153 41.7465 16.3287C42.5874 16.7421 43.9108 17.5 44.7103 18.0236C45.5099 18.561 46.5851 19.3464 47.1089 19.7874C47.6328 20.2421 48.0877 20.6555 48.1152 20.7382C48.1428 20.8208 47.0262 22.0059 43.1251 25.9055L42.2979 25.2303C41.843 24.8583 40.947 24.2244 40.2991 23.811C39.6512 23.4114 38.5346 22.8189 37.8178 22.502C37.101 22.185 35.9844 21.7716 35.3365 21.5787C34.6886 21.3996 33.4479 21.1378 32.5795 21.0138C31.3664 20.8208 30.5255 20.7933 28.9953 20.8484C27.603 20.9035 26.5554 21.0413 25.5491 21.2756C24.7495 21.4547 23.6329 21.7716 23.0678 21.9783C22.5026 22.185 21.4411 22.6535 20.7243 23.0118C20.0075 23.3701 18.8633 24.0728 18.1878 24.5413C17.5124 25.0236 16.3958 25.9882 15.7065 26.6771C15.0173 27.3661 14.0523 28.4823 13.5698 29.1575C13.1011 29.8327 12.3981 30.9764 12.0397 31.6929C11.6813 32.4094 11.185 33.5669 10.9507 34.2421C10.7025 34.9173 10.3717 36.1023 10.2063 36.8602C9.97193 38.0039 9.91679 38.6791 9.91679 40.7874C9.91679 42.8681 9.97193 43.5984 10.2201 44.7145C10.3717 45.4724 10.7025 46.6575 10.9507 47.3327C11.185 48.0079 11.6124 49.0413 11.9018 49.6063C12.1913 50.1712 12.8117 51.2323 13.2941 51.9488C13.8317 52.7756 14.7416 53.8504 15.7479 54.8563C16.7542 55.8622 17.8294 56.7579 18.6565 57.309C19.3734 57.7913 20.5313 58.4527 21.2068 58.7697C21.8822 59.1004 23.054 59.5551 23.7846 59.7893C24.529 60.0236 25.6456 60.2992 26.2659 60.4094C26.9 60.5197 28.0304 60.6575 28.7886 60.7126C29.6157 60.7677 30.8012 60.7264 31.7524 60.6299C32.6208 60.5334 33.9028 60.3268 34.5783 60.1476C35.2538 59.9823 36.4117 59.6102 37.1285 59.3208C37.8454 59.0453 38.962 58.5079 39.6099 58.1496C40.2578 57.7775 41.3468 57.0472 42.0222 56.5236C42.6977 56 43.6489 55.1594 44.1038 54.6909C44.5725 54.2086 45.3031 53.3405 45.7442 52.7756C46.1716 52.2106 46.8195 51.2185 47.1917 50.5708C47.5501 49.9232 48.0877 48.8071 48.3634 48.0905C48.6529 47.374 49.0251 46.2165 49.1905 45.5413C49.3697 44.8661 49.5765 43.5846 49.673 42.7165C49.7832 41.7519 49.8108 40.5669 49.7419 39.685C49.7005 38.8858 49.5627 37.7421 49.4386 37.1358C49.3283 36.5295 49.0526 35.4409 48.8183 34.7244C48.5839 34.0079 48.198 32.9744 47.9498 32.4508C47.7155 31.9271 47.2468 31.0453 46.916 30.5216C46.5989 29.998 45.951 29.0748 44.6414 27.4075L49.7419 22.309L50.4311 23.0531C50.8033 23.4665 51.534 24.3897 52.0578 25.0925C52.5678 25.809 53.4639 27.3523 54.0566 28.5236C54.6494 29.6949 55.3524 31.3346 55.6419 32.1752C55.9176 33.0157 56.3036 34.4626 56.4966 35.4134C56.7999 36.8327 56.8688 37.6319 56.9377 39.9606C56.9928 42.1791 56.9653 43.1437 56.7723 44.439C56.6482 45.3484 56.3725 46.7677 56.152 47.6082C55.9314 48.4488 55.5454 49.689 55.2835 50.3642C55.0216 51.0394 54.5253 52.1831 54.1669 52.8858C53.8223 53.5748 53.2709 54.5669 52.9676 55.0905C52.6505 55.6004 51.9475 56.6063 51.4099 57.3228C50.8723 58.0394 49.8384 59.2106 49.1216 59.9409C48.4047 60.6575 47.2881 61.6634 46.6403 62.1594C45.9924 62.6693 45.0136 63.3582 44.4622 63.7165C43.9246 64.061 42.8493 64.6673 42.0912 65.0394C41.333 65.4252 40.2578 65.9075 39.7063 66.1279C39.1687 66.3484 38.1211 66.6929 37.4042 66.8996C36.6874 67.1063 35.2951 67.4232 34.3026 67.6023C32.8 67.8642 32.4692 67.9606 32.2624 68.2362C32.1246 68.4153 32.0143 68.6496 32.0281 68.7598C32.0281 68.8976 31.8489 69.0079 31.518 69.063C31.2285 69.1181 30.4703 69.1732 29.8224 69.1732C29.1745 69.1732 28.4164 69.1181 28.1407 69.063C27.7685 68.9941 27.603 68.8838 27.5479 68.6634C27.5066 68.4842 27.3411 68.2224 27.1619 68.0708C26.9827 67.9055 26.5554 67.7677 26.1005 67.7264C25.6869 67.6712 24.7495 67.5059 24.0327 67.3543C23.3159 67.2027 21.9787 66.8307 21.0689 66.5275C20.1591 66.2244 18.7392 65.6456 17.8983 65.246C17.0575 64.8327 15.7341 64.0748 14.9346 63.5512C14.135 63.0413 13.046 62.2559 12.5222 61.8149C11.9983 61.3602 11.1712 60.6299 10.6888 60.1614C10.2063 59.6929 9.36538 58.7559 8.80019 58.0807C8.24879 57.4055 7.49061 56.372 7.10463 55.8071C6.73243 55.2421 6.1121 54.1811 5.72612 53.4645C5.34014 52.748 4.80252 51.563 4.51303 50.8464C4.23733 50.1299 3.86513 49.0413 3.68593 48.435C3.49294 47.8287 3.23102 46.7126 3.07938 45.9547C2.94153 45.1968 2.74854 43.7638 2.65205 42.7854C2.54177 41.4626 2.54177 40.4842 2.65205 38.996C2.73476 37.8937 2.92775 36.3779 3.07938 35.6201C3.21723 34.8622 3.53429 33.5945 3.78242 32.7953C4.01677 31.996 4.51303 30.6732 4.88523 29.8327C5.25743 28.9921 5.86397 27.8071 6.22238 27.1732C6.5808 26.5531 7.33897 25.3957 7.91795 24.624C8.48314 23.8523 9.42052 22.7224 9.98571 22.1299C10.5509 21.5374 11.5986 20.5453 12.3154 19.9527C13.0322 19.3464 14.1212 18.5197 14.7278 18.1201C15.3343 17.7205 16.3544 17.1142 17.0023 16.7697C17.6502 16.4252 18.6979 15.9153 19.3458 15.6397C19.9937 15.3642 21.2343 14.9232 22.1028 14.6752C22.9713 14.4271 24.2533 14.1102 24.9287 13.9862Z" fill="#42B093"/>
<path d="M60.7153 2.61811C61.2805 1.90157 62.0387 1.01969 62.3971 0.661417C62.8796 0.151575 63.1415 0 63.4585 0C63.7204 0 63.9962 0.124016 64.2167 0.344488C64.5613 0.688976 64.5613 0.688976 64.5613 6.06299H67.1805C68.6142 6.06299 69.91 6.11811 70.034 6.18701C70.1719 6.24213 70.3649 6.47638 70.4614 6.69685C70.5854 6.97244 70.5992 7.20669 70.5165 7.44094C70.4476 7.63386 69.9375 8.19882 69.3723 8.69488C68.8071 9.19094 67.7595 10.0453 67.0427 10.5827C66.3258 11.1201 65.0852 11.9606 64.2856 12.4291C63.4861 12.8976 62.3419 13.4902 61.7354 13.752C61.1289 14.0138 60.2053 14.3031 59.6676 14.4272C59.13 14.5374 58.4545 14.5925 57.5999 14.4685L54.5258 17.5965C52.8302 19.3327 51.4517 20.752 51.4655 20.7795C51.4655 20.7933 51.8653 21.2894 52.3478 21.8819C52.8302 22.4606 53.7125 23.6594 54.2915 24.5276C54.8704 25.3957 55.7527 26.9114 56.2214 27.9035C56.7038 28.8957 57.3104 30.315 57.5723 31.0728C57.8342 31.8307 58.2064 33.0984 58.3994 33.8976C58.6062 34.6968 58.8543 36.0748 58.9784 36.9705C59.0887 37.8524 59.1852 39.561 59.1852 40.7598C59.1852 41.9449 59.1162 43.4468 59.0473 44.0945C58.9646 44.7421 58.7716 45.9134 58.62 46.7126C58.4545 47.5118 58.0686 48.9724 57.7377 49.9508C57.4207 50.9291 56.8555 52.3898 56.4695 53.189C56.0973 53.9882 55.4632 55.2008 55.0496 55.876C54.6361 56.5512 53.8365 57.7362 53.2714 58.4941C52.7062 59.252 51.7136 60.4232 51.0657 61.0984C50.4178 61.7736 49.315 62.7933 48.6396 63.3583C47.9503 63.937 46.751 64.8327 45.9515 65.3563C45.1519 65.8799 43.6907 66.6929 42.712 67.1752C41.7332 67.6575 40.1755 68.3051 39.2657 68.6083C38.3559 68.9114 36.743 69.3524 35.6816 69.5866C34.6201 69.8071 33.5173 70 33.2278 70C32.8694 70 32.6213 69.9035 32.3732 69.6555C32.1802 69.4626 32.0285 69.1457 32.0285 68.939C32.0148 68.7185 32.125 68.4154 32.2629 68.2362C32.4697 67.9606 32.8005 67.8642 34.3031 67.6024C35.2818 67.4232 36.6879 67.1063 37.4047 66.8996C38.1215 66.6929 39.1692 66.3484 39.7068 66.128C40.2582 65.9075 41.3335 65.4252 42.0917 65.0394C42.8498 64.6673 43.9251 64.061 44.4627 63.7165C45.0141 63.3583 45.9928 62.6693 46.6407 62.1594C47.2886 61.6634 48.4052 60.6575 49.122 59.9409C49.8389 59.2106 50.8727 58.0394 51.4104 57.3228C51.948 56.6063 52.651 55.6004 52.9681 55.0905C53.2714 54.5669 53.8228 53.5748 54.1674 52.8858C54.5258 52.1831 55.0221 51.0394 55.284 50.3642C55.5459 49.689 55.9319 48.4488 56.1524 47.6083C56.373 46.7677 56.6487 45.3484 56.7728 44.439C56.9658 43.1437 56.9933 42.1791 56.9382 39.9606C56.8693 37.6319 56.8003 36.8327 56.4971 35.4134C56.3041 34.4626 55.9181 33.0157 55.6424 32.1752C55.3529 31.3346 54.6499 29.6949 54.0571 28.5236C53.4643 27.3524 52.5683 25.8091 52.0583 25.0925C51.5344 24.3898 50.8038 23.4665 49.7424 22.3091L44.6419 27.4075L45.4828 28.4823C45.9515 29.0748 46.5994 29.998 46.9164 30.5217C47.2473 31.0453 47.716 31.9272 47.9503 32.4508C48.1984 32.9744 48.5844 34.0079 48.8188 34.7244C49.0531 35.4409 49.3288 36.5295 49.4391 37.1358C49.5632 37.7421 49.701 38.8858 49.7424 39.685C49.8113 40.5669 49.7837 41.752 49.6734 42.7165C49.577 43.5846 49.3702 44.8661 49.191 45.5413C49.0255 46.2165 48.6534 47.374 48.3639 48.0905C48.0882 48.8071 47.5505 49.9232 47.1921 50.5709C46.8199 51.2185 46.0893 52.3071 45.5655 52.9823C45.0417 53.6575 44.2008 54.6083 43.7321 55.063C43.2496 55.5315 42.3811 56.2618 41.8159 56.7028C41.2508 57.1299 40.2582 57.7776 39.6103 58.1496C38.9624 58.5079 37.8458 59.0453 37.129 59.3209C36.4122 59.6102 35.2542 59.9823 34.5788 60.1476C33.8895 60.3268 32.6213 60.5335 31.7528 60.6299C30.8017 60.7264 29.6161 60.7677 28.789 60.7126C28.0309 60.6575 26.9005 60.5197 26.2664 60.4094C25.646 60.2992 24.5295 60.0236 23.7851 59.7894C23.0544 59.5551 21.8827 59.1004 21.2072 58.7697C20.518 58.4528 19.3738 57.7913 18.657 57.3091C17.8299 56.7579 16.7547 55.8622 15.7484 54.8563C14.742 53.8504 13.8322 52.7756 13.2946 51.9488C12.8121 51.2323 12.1918 50.1713 11.9023 49.6063C11.6128 49.0413 11.1855 48.0079 10.9511 47.3327C10.703 46.6575 10.3722 45.4724 10.2205 44.7146C9.9724 43.5984 9.91726 42.8681 9.91726 40.7874C9.91726 38.6791 9.9724 38.0039 10.2067 36.8602C10.3722 36.1024 10.703 34.9173 10.9511 34.2421C11.1855 33.5669 11.6818 32.4094 12.0402 31.6929C12.3986 30.9764 13.1016 29.8327 13.5703 29.1575C14.0528 28.4823 15.0177 27.3661 15.707 26.6772C16.3963 25.9882 17.5128 25.0236 18.1883 24.5413C18.8638 24.0728 20.0079 23.3701 20.7248 23.0118C21.4416 22.6535 22.503 22.185 23.0682 21.9783C23.6334 21.7717 24.75 21.4547 25.5495 21.2756C26.5559 21.0413 27.6035 20.9035 28.9958 20.8484C30.526 20.7933 31.3669 20.8209 32.5799 21.0138C33.4484 21.1378 34.6891 21.3996 35.337 21.5787C35.9849 21.7717 37.1014 22.185 37.8183 22.502C38.5351 22.8189 39.6517 23.4114 40.2996 23.811C40.9475 24.2244 41.8435 24.8583 43.1255 25.9055L45.6482 23.3839C47.0267 22.0059 48.1433 20.8209 48.1157 20.7382C48.0882 20.6555 47.6333 20.2421 47.1094 19.7874C46.5856 19.3465 45.5104 18.561 44.7108 18.0236C43.9113 17.5 42.5741 16.7421 41.747 16.3287C40.9061 15.9154 39.4863 15.3366 38.5765 15.0197C37.6666 14.7165 36.1778 14.3031 35.268 14.124C34.3582 13.9449 32.7729 13.7244 31.7528 13.628C30.3605 13.5039 29.4094 13.5039 27.9619 13.628C26.9005 13.7106 25.4117 13.9035 24.6535 14.0551C23.8953 14.1929 22.6547 14.5098 21.8965 14.7303C21.1383 14.9508 19.9942 15.3642 19.3463 15.6398C18.6984 15.9154 17.6507 16.4252 17.0028 16.7697C16.3549 17.1142 15.3348 17.7205 14.7283 18.1201C14.1217 18.5197 13.0327 19.3465 12.3159 19.9528C11.599 20.5453 10.5514 21.5374 9.98619 22.1299C9.421 22.7224 8.48361 23.8524 7.91842 24.624C7.33945 25.3957 6.58127 26.5531 6.22286 27.1732C5.86445 27.8071 5.2579 28.9921 4.88571 29.8327C4.51351 30.6732 4.01724 31.9961 3.7829 32.7953C3.53477 33.5945 3.21771 34.8622 3.07986 35.6201C2.92822 36.378 2.73523 37.8937 2.65252 38.9961C2.54224 40.4842 2.54224 41.4626 2.65252 42.7854C2.74902 43.7638 2.94201 45.1968 3.07986 45.9547C3.23149 46.7126 3.49341 47.8287 3.6864 48.435C3.86561 49.0413 4.23781 50.1299 4.51351 50.8465C4.80299 51.563 5.34061 52.748 5.7266 53.4646C6.11258 54.1811 6.73291 55.2421 7.1051 55.8071C7.49109 56.372 8.24927 57.4055 8.80067 58.0807C9.36586 58.7559 10.2067 59.6929 10.6892 60.1614C11.1717 60.6299 11.985 61.3602 12.5226 61.815C13.0465 62.2559 14.1355 63.0413 14.935 63.5512C15.7346 64.0748 17.0579 64.8327 17.8988 65.2461C18.7259 65.6457 20.1596 66.2244 21.0694 66.5276C21.9792 66.8307 23.3164 67.2028 24.0332 67.3543C24.75 67.5059 25.6874 67.6713 26.101 67.7264C26.5145 67.7815 26.9556 67.8917 27.0797 67.9744C27.2038 68.0709 27.3692 68.2776 27.4519 68.4567C27.5484 68.622 27.6173 68.8563 27.6173 68.9665C27.6173 69.0768 27.4657 69.3661 27.2727 69.5866C26.997 69.9173 26.8178 70 26.4042 70C26.1285 70 25.0533 69.8209 24.0332 69.6004C23.0131 69.3799 21.4002 68.9528 20.4491 68.6358C19.4979 68.3189 17.9815 67.6988 17.0717 67.2579C16.1619 66.8307 14.9212 66.1555 14.3147 65.7835C13.7082 65.4114 12.6881 64.6949 12.0402 64.2126C11.3923 63.7303 10.193 62.6693 9.36586 61.8701C8.55254 61.0709 7.49109 59.9547 7.02239 59.3898C6.56749 58.8248 5.74038 57.7087 5.21655 56.9094C4.67893 56.1102 3.89318 54.7461 3.46584 53.8779C3.0385 53.0098 2.45953 51.6732 2.18383 50.9154C1.90813 50.1575 1.49457 48.8209 1.27401 47.9528C1.06724 47.0846 0.77775 45.6929 0.653684 44.8524C0.515833 43.8878 0.433123 42.4272 0.433123 40.8563C0.419338 39.189 0.502048 37.8248 0.667469 36.7224C0.791535 35.813 1.08102 34.3937 1.2878 33.5531C1.49457 32.7126 1.90813 31.4173 2.18383 30.6594C2.45953 29.9016 3.02472 28.6063 3.42449 27.7657C3.83804 26.9252 4.55486 25.6575 5.02356 24.9409C5.49225 24.2244 6.31935 23.0669 6.87076 22.3917C7.40838 21.7165 8.38712 20.628 9.02123 19.9941C9.65534 19.3602 10.7306 18.3819 11.4198 17.8445C12.0953 17.2933 13.2533 16.4665 13.9701 15.998C14.6869 15.5295 15.9551 14.813 16.796 14.3996C17.6231 13.9862 18.9878 13.4075 19.8287 13.1043C20.6558 12.815 21.993 12.4154 22.7925 12.2224C23.5921 12.0295 24.9154 11.7677 25.7563 11.6299C26.7488 11.4921 28.1411 11.4094 29.8229 11.4094C31.5047 11.4094 32.897 11.4921 33.8895 11.6299C34.7166 11.7677 36.0538 12.0295 36.8533 12.2224C37.6529 12.4154 38.9762 12.815 39.8171 13.1181C40.6442 13.4213 42.0503 14.0276 42.9188 14.4685C43.7872 14.9094 45.1519 15.6949 45.9515 16.2185C46.751 16.7421 47.9503 17.6378 49.8389 19.2224L56.0835 12.9528L56.0973 11.8917C56.1111 11.1614 56.2076 10.5276 56.4144 9.92126C56.5936 9.4252 57.0071 8.47441 57.3517 7.78543C57.6964 7.09646 58.3581 5.95276 58.8267 5.23622C59.2817 4.51968 60.1363 3.33465 60.7153 2.61811Z" fill="#1E1E28"/>
<path d="M26.928 32.9744C27.4243 32.7815 28.1687 32.5886 28.5822 32.5197C28.9958 32.4646 29.5196 32.4095 29.754 32.4095C29.9883 32.3957 30.6638 32.4784 31.2703 32.5886C31.8907 32.6988 32.8005 33.002 33.3381 33.2638C33.8619 33.5118 34.4271 33.8288 34.5788 33.939C34.8407 34.1457 34.7442 34.2697 31.7942 37.2323C29.2991 39.7402 28.7201 40.374 28.7201 40.6772C28.7201 40.8976 28.7614 41.1595 28.8166 41.2835C28.8855 41.4075 29.0923 41.6004 29.2991 41.6969C29.5196 41.8071 29.7953 41.8898 29.9194 41.8898C30.0572 41.8898 31.5736 40.4705 36.4122 35.6201L36.7981 36.2402C37.0049 36.5847 37.322 37.2047 37.5012 37.6181C37.6666 38.0315 37.8872 38.7205 37.9699 39.1339C38.0664 39.5748 38.0939 40.4567 38.0526 41.2697C38.0112 42.1378 37.8734 42.9508 37.6942 43.4744C37.5425 43.9291 37.1566 44.7008 36.8395 45.1969C36.5224 45.6929 35.9297 46.3957 35.5437 46.7815C35.1439 47.1536 34.4547 47.691 34.0136 47.9528C33.5587 48.2146 32.704 48.5728 32.0974 48.752C31.3393 48.9587 30.6362 49.0551 29.8229 49.0551C29.175 49.0551 28.279 48.9587 27.8241 48.8484C27.3692 48.7382 26.5283 48.4075 25.9631 48.1319C25.2462 47.7736 24.6259 47.3051 23.9505 46.6437C23.2336 45.9272 22.8339 45.376 22.3927 44.5079C21.9792 43.6811 21.7586 42.9784 21.607 42.0965C21.4416 41.1319 21.4278 40.6358 21.5381 39.8228C21.607 39.2579 21.8413 38.3622 22.0343 37.8248C22.2411 37.2874 22.6133 36.5571 22.8614 36.1713C23.1096 35.7854 23.6472 35.1654 24.0607 34.7795C24.4605 34.3937 25.067 33.9114 25.4117 33.691C25.7563 33.4843 26.4318 33.1536 26.928 32.9744Z" fill="#42B093"/>
<path d="M24.5849 23.7834C25.2328 23.5905 26.2529 23.3287 26.8594 23.2185C27.6452 23.0807 28.6239 23.0393 30.2368 23.0669C32.2218 23.122 32.7181 23.1771 34.1655 23.5492C35.2821 23.8386 36.3573 24.2382 37.4739 24.7893C38.3837 25.2303 39.6382 25.9744 40.2585 26.4429C40.8926 26.8976 41.4303 27.3248 41.4578 27.3799C41.4992 27.4488 40.3826 28.6338 36.4676 32.5885L35.7232 32.0925C35.3235 31.8169 34.7307 31.4586 34.4136 31.2933C34.0828 31.1417 33.2833 30.8386 32.6216 30.6456C31.6566 30.37 31.1052 30.3011 29.8921 30.2874C28.9272 30.2874 28.0174 30.37 27.4108 30.5078C26.887 30.6456 25.9496 30.9763 25.3431 31.2657C24.7365 31.5551 23.8405 32.0925 23.358 32.4645C22.8617 32.8366 22.1311 33.5393 21.7176 34.0354C21.3178 34.5315 20.7113 35.496 20.3804 36.1712C20.0496 36.8464 19.6774 37.8385 19.5533 38.376C19.4155 38.9547 19.319 39.8917 19.319 40.7185C19.319 41.4763 19.4155 42.496 19.5258 42.9921C19.6498 43.4882 19.8704 44.2323 20.022 44.6456C20.1736 45.059 20.601 45.872 20.9732 46.437C21.3454 47.0019 22.0484 47.8563 22.5309 48.3248C23.0134 48.7795 23.7578 49.3858 24.1713 49.6476C24.5849 49.9094 25.2466 50.2539 25.6188 50.4193C26.0047 50.5846 26.8043 50.8464 27.4108 50.998C28.0863 51.1496 29.0099 51.2598 29.7956 51.2598C30.4849 51.2598 31.5188 51.1634 32.0702 51.0393C32.6078 50.9291 33.7106 50.5157 34.5101 50.1299C35.7784 49.5098 36.1092 49.2756 37.212 48.1732C38.3148 47.0708 38.5492 46.7401 39.1695 45.4724C39.5555 44.6732 39.969 43.5708 40.0793 43.0334C40.2034 42.4823 40.2999 41.4626 40.2999 40.7874C40.2999 40.1122 40.2034 39.12 40.0931 38.5826C39.9828 38.0452 39.7347 37.2323 39.5279 36.7637C39.3349 36.2815 38.9352 35.5236 38.6319 35.0689C38.3286 34.6141 38.0805 34.187 38.0943 34.1043C38.0943 34.0216 39.2109 32.8504 43.0707 29.0059L43.5532 29.5571C43.8289 29.8602 44.3113 30.5078 44.6284 31.0039C44.9592 31.5 45.4555 32.3543 45.7312 32.9055C46.0069 33.4429 46.4205 34.4763 46.6548 35.1653C46.8891 35.8681 47.1786 36.9153 47.2751 37.4803C47.3854 38.0452 47.5095 39.1338 47.5646 39.8917C47.606 40.6634 47.5784 41.876 47.4819 42.6476C47.3992 43.4055 47.1648 44.6181 46.9719 45.3346C46.7789 46.0511 46.448 47.0708 46.2275 47.6082C46.0069 48.1456 45.5106 49.0964 45.1247 49.7441C44.7387 50.3917 44.1597 51.2598 43.8426 51.6732C43.5256 52.0866 42.7674 52.9134 42.1609 53.5059C41.5543 54.1122 40.4929 54.9665 39.8174 55.4212C39.1419 55.8759 38.177 56.4547 37.6807 56.7027C37.1844 56.9508 36.3573 57.309 35.8197 57.5019C35.2959 57.6811 34.2344 57.9842 33.4763 58.1496C32.3459 58.4114 31.6842 58.4665 29.8232 58.4665C28.1552 58.4803 27.2592 58.4114 26.4459 58.2323C25.8393 58.0945 24.7779 57.8051 24.1024 57.5846C23.4269 57.3504 22.2966 56.8819 21.6211 56.5236C20.9456 56.1653 19.8842 55.5177 19.2776 55.063C18.6711 54.622 17.6785 53.7539 17.072 53.1338C16.4655 52.5137 15.6521 51.5492 15.2662 50.9842C14.8664 50.4193 14.2736 49.3858 13.929 48.7106C13.5844 48.0354 13.1433 47.0019 12.9503 46.437C12.7711 45.872 12.4954 44.8799 12.3575 44.2323C12.1783 43.3504 12.1094 42.4685 12.1094 40.7185C12.1094 39.3267 12.1921 38.0452 12.2886 37.5492C12.3989 37.0945 12.6332 36.1988 12.8124 35.5511C13.0054 34.9035 13.5017 33.7047 13.9152 32.8641C14.3288 32.0236 15.0594 30.8248 15.5419 30.1771C16.0243 29.5295 16.9617 28.4823 17.6372 27.8622C18.3127 27.2283 19.3879 26.3602 20.0358 25.933C20.6837 25.5059 21.7038 24.9271 22.3103 24.6515C22.9169 24.376 23.937 23.9763 24.5849 23.7834Z" fill="white"/>
<path d="M59.7085 8.061C60.1221 7.30313 60.8802 6.09053 61.3765 5.374L62.2863 4.06494L62.3277 5.71848C62.3415 6.71061 62.4242 7.49604 62.5345 7.68896C62.6172 7.85431 62.7964 8.04722 62.9067 8.08856C63.0169 8.14368 63.8578 8.22636 66.4219 8.33659L65.5258 8.98423C65.0296 9.32872 64.0095 10.0039 63.2513 10.4586C62.4931 10.9271 61.3489 11.5334 60.701 11.809C60.0531 12.0846 59.2398 12.3464 58.2197 12.4705V11.8779C58.2197 11.561 58.3851 10.8858 58.5781 10.376C58.7849 9.85234 59.2812 8.81888 59.7085 8.061Z" fill="#D8F3EA"/>
</svg>
