<svg width="32" height="30" viewBox="0 0 32 30" fill="none" xmlns="http://www.w3.org/2000/svg">
<path d="M4.54225 0.0492958C4.50704 0.0704225 4.48592 3.79577 4.49296 8.32394C4.5 13.7535 4.52817 16.5493 4.57747 16.5493C4.61268 16.5493 4.94366 16.4507 5.30282 16.331C5.65493 16.2183 6.19014 15.993 6.47887 15.831C6.76761 15.6761 7.27465 15.3732 7.60563 15.162C7.93662 14.9437 8.42254 14.6127 8.69718 14.4155C9.00704 14.1901 9.25352 14.0634 9.3662 14.0704C9.46479 14.0704 9.59859 14.1338 9.66901 14.2042C9.78169 14.3239 9.79578 14.5634 9.80986 17.2887L9.82394 20.2465L14.0845 20.2817C14.1479 19.6549 14.2676 18.7887 14.3873 17.9577C14.5986 16.4648 14.6056 16.4014 14.6268 12.9577C14.6479 10.5845 14.6338 9.28169 14.5775 8.87324C14.5352 8.54225 14.4155 7.97183 14.3239 7.60563C14.2254 7.23944 14.007 6.60563 13.838 6.19718C13.662 5.78873 13.3028 5.12676 13.0423 4.71831C12.7746 4.30986 12.3521 3.74648 12.1056 3.46479C11.8592 3.1831 11.4296 2.76056 11.162 2.52817C10.8873 2.29577 10.4648 1.96479 10.2113 1.79577C9.95775 1.62676 9.48592 1.34507 9.15493 1.16901C8.82394 0.992958 8.17606 0.725352 7.71127 0.570423C7.23944 0.415493 6.45775 0.232394 5.93662 0.147887C5.42254 0.0633803 4.90845 0 4.80282 0C4.69014 0 4.57747 0.0211268 4.54225 0.0492958ZM25.6338 0.133803C25.2254 0.204225 24.6056 0.34507 24.2606 0.443662C23.9085 0.542254 23.338 0.746479 22.993 0.894366C22.6408 1.03521 22.0916 1.33099 21.7606 1.53521C21.4296 1.74648 20.993 2.04225 20.7817 2.20423C20.5704 2.3662 20.1549 2.73944 19.8662 3.02817C19.5704 3.32394 19.169 3.78169 18.9648 4.0493C18.7606 4.32394 18.4577 4.78169 18.2817 5.07042C18.1056 5.35916 17.838 5.90141 17.6831 6.26761C17.5282 6.6338 17.3239 7.23944 17.2324 7.60563C17.1338 7.97183 17.0211 8.57747 16.9718 8.94366C16.9085 9.42254 16.9014 10.5915 16.9225 13.0282C16.9507 15.3944 16.993 16.669 17.0634 17.1831C17.1197 17.5916 17.2394 18.4507 17.331 19.1056L17.5 20.2887L21.7254 20.2465C21.7817 15.5493 21.8099 14.1831 21.8169 14.169C21.8239 14.162 21.9155 14.1268 22.0282 14.0915C22.1549 14.0493 22.27 14.054 22.3732 14.1056C22.4577 14.1549 22.9296 14.4648 23.4296 14.8028C23.9225 15.1408 24.7254 15.6197 25.2113 15.8732C25.6972 16.1197 26.2676 16.3732 26.4789 16.4366C26.6901 16.5 26.9085 16.5493 26.9577 16.5493C27.0211 16.5493 27.0352 14.8592 27.0282 8.28873L27.007 0.0352113C26.5141 0.0211268 26.0423 0.0704225 25.6338 0.133803ZM2.95775 0.183099C2.74648 0.239437 2.3662 0.387324 2.11268 0.514085C1.83099 0.65493 1.47887 0.915493 1.19718 1.19718C0.922535 1.47183 0.633803 1.85211 0.478873 2.14789C0.338028 2.41549 0.169014 2.84507 0.112676 3.09859C0.0211268 3.48592 0 4.27465 0 8.38028V13.2042C0.267606 14.0775 0.464789 14.5211 0.619718 14.7535C0.767606 14.9859 1.08451 15.3592 1.32394 15.5845C1.56338 15.8028 1.95775 16.0775 2.20423 16.1901C2.44366 16.3028 2.78873 16.4366 2.97183 16.493C3.15493 16.5423 3.32394 16.5704 3.34507 16.5493C3.35915 16.5282 3.3662 12.8169 3.35916 8.30282L3.34507 0.0915493L2.95775 0.183099ZM28.162 8.30986C28.169 15.5775 28.1831 16.5423 28.2746 16.5423C28.331 16.5423 28.5775 16.4789 28.8239 16.3944C29.0634 16.3169 29.4366 16.1479 29.6479 16.0141C29.8592 15.8873 30.2254 15.5845 30.4577 15.338C30.6901 15.0915 30.9789 14.6831 31.1056 14.4296C31.2254 14.1761 31.3732 13.7817 31.4366 13.5493C31.5282 13.1901 31.5493 12.4437 31.5493 8.30282C31.5493 4.14789 31.5282 3.42254 31.4366 3.05634C31.3732 2.82394 31.2183 2.42958 31.0845 2.17606C30.9577 1.92254 30.7113 1.56338 30.5423 1.3662C30.3732 1.17606 30.0493 0.887324 29.8169 0.739437C29.5916 0.584507 29.2535 0.401408 29.0704 0.330986C28.8803 0.260563 28.5986 0.176056 28.4437 0.140845L28.1479 0.0774648L28.162 8.30986ZM9.79578 24.9085C9.78873 27.8239 9.80986 28.4718 9.90141 28.7817C9.97183 29.0352 10.0986 29.2465 10.3028 29.4507C10.493 29.6408 10.7394 29.8028 10.9577 29.8732C11.1901 29.9577 11.5211 29.993 11.9437 29.993C12.493 29.993 12.6338 29.9648 13.0141 29.7817C13.3592 29.6197 13.5 29.5 13.669 29.2394C13.7817 29.0563 13.8944 28.8099 13.9155 28.6901C13.9296 28.5775 13.9577 26.8873 13.9648 24.9437L13.9859 21.4014H9.79578V24.9085ZM17.5916 24.9437C17.6056 26.8944 17.6268 28.5775 17.6479 28.6972C17.662 28.8099 17.7746 29.0563 17.8944 29.2394C18.0563 29.507 18.1972 29.6197 18.5423 29.7817C18.9296 29.9648 19.0634 29.993 19.6197 30C20.0352 30 20.3732 29.9577 20.6056 29.8803C20.8239 29.8028 21.0704 29.6479 21.2535 29.4577C21.4577 29.2465 21.5845 29.0352 21.662 28.7817C21.7465 28.4789 21.7676 27.8239 21.7676 24.9085V21.4085H17.5775L17.5916 24.9437Z" fill="#F4C60D"/>
</svg>
