<svg width="527" height="399" viewBox="0 0 527 399" fill="none" xmlns="http://www.w3.org/2000/svg">
<g clip-path="url(#clip0_27_209)">
<path d="M247.653 334.327C247.653 334.327 254.361 323.323 262.972 329.829C271.583 336.336 287.531 347.314 287.531 347.314C287.531 347.314 290.797 354.335 282.343 351.698C273.889 349.06 246.291 344.816 246.291 344.816L247.653 334.327Z" fill="#FEB8B8"/>
<path d="M60.2073 264.441C62.3448 247.254 72.9966 230.319 89.3883 224.726C82.9239 242.416 82.9253 261.823 89.3923 279.513C91.911 286.326 95.4219 293.642 93.0527 300.509C91.5786 304.781 87.9724 308.05 83.9414 310.094C79.9101 312.138 75.4362 313.112 71.0184 314.067L70.1489 314.786C63.1356 298.95 58.0699 281.629 60.2073 264.441Z" fill="#CDCDCD"/>
<path d="M89.5507 225.051C80.0049 235.746 74.072 249.178 72.5945 263.437C72.222 266.502 72.3347 269.605 72.9286 272.634C73.6025 275.566 75.0493 278.264 77.1185 280.448C79.007 282.523 81.179 284.427 82.5302 286.924C83.2029 288.213 83.5955 289.63 83.6824 291.081C83.7692 292.532 83.5483 293.985 83.0341 295.345C81.8411 298.767 79.4898 301.556 77.0957 304.203C74.4374 307.143 71.6297 310.154 70.4998 314.051C70.3628 314.523 69.6382 314.283 69.7749 313.812C71.7408 307.031 78.3226 303.18 81.4614 297.073C82.926 294.224 83.5408 290.916 82.1677 287.908C80.967 285.277 78.7289 283.312 76.7987 281.228C74.7488 279.127 73.2445 276.557 72.4172 273.741C71.671 270.752 71.4388 267.657 71.7307 264.591C72.2777 257.676 73.9086 250.89 76.5636 244.481C79.5532 237.15 83.7747 230.385 89.0456 224.478C89.372 224.113 89.8749 224.688 89.5507 225.051Z" fill="white"/>
<path d="M72.8004 258.818C70.4416 258.245 68.3632 256.853 66.9363 254.889C65.5094 252.925 64.827 250.519 65.0109 248.098C65.0498 247.609 65.8124 247.646 65.7735 248.136C65.5981 250.39 66.234 252.632 67.5664 254.458C68.8989 256.283 70.8401 257.573 73.0397 258.093C73.5176 258.207 73.2755 258.931 72.8004 258.818Z" fill="white"/>
<path d="M76.0234 279.522C80.2837 276.978 83.4286 272.922 84.8312 268.163C84.9698 267.691 85.6945 267.931 85.5561 268.402C84.0873 273.352 80.8059 277.566 76.3667 280.204C75.9434 280.455 75.6024 279.772 76.0234 279.522Z" fill="white"/>
<path d="M80.2619 237.874C81.1284 238.285 82.0836 238.475 83.0417 238.427C83.9998 238.378 84.9309 238.092 85.7512 237.595C86.1711 237.339 86.5117 238.022 86.0945 238.277C85.1856 238.822 84.157 239.136 83.0985 239.192C82.0401 239.249 80.984 239.045 80.0226 238.598C79.9284 238.564 79.8509 238.495 79.8058 238.405C79.7607 238.316 79.7514 238.212 79.7798 238.116C79.812 238.02 79.8806 237.941 79.9709 237.896C80.0612 237.85 80.1658 237.842 80.2619 237.874Z" fill="white"/>
<path d="M139.353 255.425C139.095 255.592 138.838 255.76 138.58 255.934C135.128 258.204 131.866 260.75 128.826 263.549C128.587 263.761 128.349 263.98 128.117 264.199C120.866 271.019 114.944 279.126 110.651 288.108C108.947 291.683 107.517 295.383 106.374 299.176C104.795 304.414 103.5 310.218 100.376 314.503C100.055 314.953 99.706 315.384 99.3318 315.791H71.094C71.0299 315.759 70.9654 315.733 70.9009 315.701L69.7734 315.753C69.8187 315.553 69.87 315.347 69.9153 315.147C69.9411 315.031 69.9732 314.915 69.999 314.799C70.0182 314.722 70.0377 314.645 70.0506 314.574C70.0569 314.548 70.0635 314.522 70.0698 314.503C70.0827 314.432 70.1022 314.367 70.1151 314.303C70.3985 313.15 70.6905 311.997 70.9912 310.843C70.9912 310.837 70.9912 310.837 70.9975 310.831C73.3105 302.049 76.377 293.384 80.6613 285.46C80.7902 285.221 80.9189 284.977 81.0608 284.738C83.0117 281.177 85.2505 277.781 87.7547 274.585C89.1315 272.839 90.5959 271.164 92.1421 269.566C96.1452 265.445 100.772 261.98 105.852 259.297C115.979 253.949 127.705 251.901 138.528 255.167C138.805 255.251 139.076 255.334 139.353 255.425Z" fill="#CDCDCD"/>
<path d="M139.289 255.783C125.228 258.576 112.404 265.728 102.639 276.224C100.497 278.446 98.7181 280.992 97.3686 283.768C96.1414 286.515 95.6722 289.54 96.0096 292.53C96.2683 295.323 96.8563 298.151 96.4313 300.959C96.1925 302.393 95.6531 303.76 94.8488 304.971C94.0444 306.182 92.9931 307.21 91.7638 307.986C88.7512 310 85.1946 310.811 81.689 311.483C77.7968 312.23 73.7421 312.943 70.4936 315.375C70.1 315.669 69.6659 315.041 70.0589 314.747C75.7108 310.517 83.2846 311.405 89.4675 308.419C92.3525 307.025 94.8352 304.754 95.5498 301.526C96.1748 298.703 95.5709 295.786 95.2846 292.96C94.9127 290.048 95.2593 287.09 96.2942 284.344C97.498 281.508 99.1755 278.897 101.255 276.624C105.855 271.433 111.243 266.996 117.221 263.478C124.022 259.425 131.465 256.565 139.23 255.022C139.711 254.926 139.767 255.688 139.289 255.783Z" fill="white"/>
<path d="M105.585 272.659C104.046 270.782 103.225 268.419 103.268 265.992C103.311 263.565 104.215 261.232 105.819 259.41C106.145 259.043 106.732 259.532 106.405 259.9C104.909 261.594 104.066 263.767 104.031 266.027C103.996 268.287 104.769 270.485 106.212 272.225C106.526 272.603 105.896 273.035 105.585 272.659Z" fill="white"/>
<path d="M95.6922 291.13C100.625 291.664 105.578 290.319 109.564 287.363C109.959 287.07 110.393 287.698 109.999 287.991C105.845 291.059 100.688 292.448 95.5558 291.881C95.0667 291.827 95.2057 291.076 95.6922 291.13Z" fill="white"/>
<path d="M124.152 260.429C124.596 261.279 125.244 262.006 126.038 262.544C126.832 263.082 127.748 263.414 128.702 263.511C129.192 263.559 129.052 264.31 128.566 264.262C127.512 264.15 126.501 263.782 125.622 263.19C124.744 262.597 124.023 261.799 123.524 260.863C123.47 260.779 123.449 260.677 123.467 260.579C123.485 260.48 123.54 260.392 123.621 260.332C123.704 260.275 123.806 260.253 123.906 260.271C124.005 260.289 124.094 260.346 124.152 260.429Z" fill="white"/>
<path d="M287.946 378.355C288.775 371.694 292.903 365.131 299.256 362.963C296.75 369.819 296.751 377.341 299.257 384.196C300.233 386.837 301.594 389.672 300.676 392.333C300.018 393.978 298.754 395.308 297.145 396.048C295.548 396.773 293.865 397.29 292.136 397.588L291.799 397.866C289.081 391.729 287.118 385.016 287.946 378.355Z" fill="#CDCDCD"/>
<path d="M299.318 363.089C295.619 367.234 293.319 372.44 292.747 377.966C292.602 379.153 292.646 380.356 292.876 381.53C293.137 382.666 293.698 383.712 294.5 384.558C295.298 385.307 296.002 386.15 296.597 387.068C296.858 387.568 297.01 388.117 297.044 388.679C297.078 389.242 296.992 389.805 296.793 390.332C296.263 391.619 295.481 392.786 294.491 393.765C293.461 394.904 292.373 396.071 291.935 397.581C291.882 397.764 291.601 397.671 291.654 397.489C292.416 394.861 294.967 393.368 296.183 391.002C296.497 390.47 296.684 389.873 296.732 389.257C296.779 388.642 296.685 388.023 296.457 387.449C295.905 386.481 295.203 385.608 294.376 384.861C293.582 384.047 292.999 383.05 292.678 381.959C292.389 380.801 292.299 379.601 292.412 378.413C292.624 375.733 293.256 373.103 294.285 370.619C295.444 367.778 297.08 365.156 299.122 362.867C299.249 362.725 299.444 362.948 299.318 363.089Z" fill="white"/>
<path d="M292.827 376.175C291.913 375.953 291.107 375.414 290.554 374.653C290.002 373.892 289.737 372.959 289.808 372.021C289.823 371.831 290.119 371.846 290.104 372.036C290.036 372.909 290.282 373.778 290.799 374.486C291.315 375.193 292.067 375.693 292.92 375.894C293.105 375.939 293.011 376.219 292.827 376.175Z" fill="white"/>
<path d="M294.076 384.2C295.727 383.214 296.945 381.642 297.489 379.797C297.543 379.614 297.824 379.707 297.77 379.89C297.201 381.808 295.929 383.442 294.209 384.464C294.045 384.561 293.912 384.296 294.076 384.2Z" fill="white"/>
<path d="M295.718 368.059C296.054 368.218 296.424 368.292 296.796 368.273C297.167 368.254 297.528 368.143 297.846 367.951C298.009 367.851 298.141 368.116 297.979 368.215C297.627 368.426 297.228 368.548 296.818 368.57C296.408 368.592 295.998 368.512 295.626 368.34C295.589 368.326 295.559 368.299 295.542 368.265C295.524 368.23 295.521 368.19 295.532 368.153C295.544 368.116 295.571 368.085 295.606 368.067C295.641 368.05 295.681 368.047 295.718 368.059Z" fill="white"/>
<path d="M318.619 374.861C318.519 374.925 318.419 374.99 318.319 375.058C316.982 375.938 315.717 376.925 314.539 378.009C314.447 378.091 314.354 378.176 314.265 378.261C311.454 380.904 309.159 384.046 307.496 387.527C306.835 388.913 306.281 390.347 305.838 391.817C305.226 393.846 304.724 396.096 303.513 397.756C303.389 397.931 303.254 398.098 303.109 398.256H292.165C292.14 398.243 292.115 398.233 292.09 398.221L291.653 398.241C291.671 398.163 291.691 398.084 291.708 398.006C291.718 397.961 291.731 397.916 291.741 397.871C291.748 397.841 291.756 397.811 291.761 397.784C291.763 397.774 291.766 397.764 291.768 397.756C291.773 397.729 291.781 397.704 291.786 397.679C291.896 397.232 292.009 396.785 292.125 396.338L292.128 396.333C292.983 392.919 294.24 389.619 295.873 386.501C295.923 386.408 295.973 386.314 296.028 386.221C296.784 384.841 297.651 383.525 298.622 382.286C299.156 381.61 299.723 380.96 300.322 380.341C301.874 378.744 303.667 377.401 305.635 376.361C309.561 374.289 314.105 373.495 318.299 374.761C318.407 374.793 318.512 374.826 318.619 374.861Z" fill="#CDCDCD"/>
<path d="M318.594 374.999C313.145 376.082 308.175 378.854 304.391 382.921C303.56 383.783 302.871 384.769 302.348 385.845C301.872 386.91 301.691 388.082 301.821 389.241C302.008 390.319 302.063 391.416 301.985 392.507C301.892 393.063 301.683 393.593 301.371 394.062C301.06 394.532 300.652 394.93 300.176 395.231C298.978 395.94 297.65 396.4 296.271 396.586C294.763 396.875 293.191 397.152 291.933 398.094C291.78 398.208 291.612 397.965 291.764 397.851C293.954 396.212 296.89 396.556 299.286 395.399C299.857 395.162 300.366 394.799 300.774 394.336C301.183 393.873 301.48 393.323 301.643 392.727C301.785 391.622 301.751 390.501 301.54 389.407C301.396 388.279 301.531 387.133 301.932 386.068C302.398 384.969 303.048 383.957 303.854 383.077C305.637 381.064 307.725 379.345 310.042 377.982C312.677 376.411 315.562 375.302 318.572 374.704C318.758 374.667 318.779 374.963 318.594 374.999Z" fill="white"/>
<path d="M305.532 381.54C304.936 380.812 304.618 379.896 304.634 378.956C304.651 378.015 305.002 377.111 305.623 376.405C305.749 376.263 305.977 376.452 305.85 376.595C305.27 377.251 304.944 378.093 304.93 378.969C304.916 379.845 305.216 380.697 305.776 381.371C305.897 381.518 305.653 381.685 305.532 381.54Z" fill="white"/>
<path d="M301.698 388.698C303.61 388.905 305.53 388.384 307.074 387.238C307.227 387.125 307.396 387.368 307.243 387.482C305.633 388.671 303.635 389.209 301.646 388.989C301.456 388.968 301.51 388.677 301.698 388.698Z" fill="white"/>
<path d="M312.729 376.8C312.901 377.129 313.152 377.411 313.46 377.62C313.768 377.828 314.122 377.957 314.492 377.994C314.682 378.013 314.628 378.304 314.439 378.285C314.031 378.242 313.639 378.099 313.299 377.87C312.958 377.64 312.679 377.331 312.485 376.968C312.464 376.936 312.456 376.896 312.463 376.858C312.47 376.82 312.492 376.785 312.523 376.762C312.555 376.74 312.595 376.732 312.633 376.739C312.672 376.746 312.706 376.768 312.729 376.8Z" fill="white"/>
<path d="M475.967 236.864C472.682 210.446 456.31 184.416 431.115 175.819C441.051 203.011 441.049 232.84 431.109 260.03C427.237 270.503 421.841 281.747 425.482 292.301C427.748 298.869 433.291 303.893 439.487 307.035C445.683 310.177 452.56 311.674 459.35 313.141L460.687 314.247C471.467 289.905 479.253 263.282 475.967 236.864Z" fill="#CDCDCD"/>
<path d="M430.865 176.319C445.537 192.758 454.656 213.403 456.927 235.321C457.385 240.02 457.441 244.826 456.414 249.457C455.378 253.964 453.154 258.11 449.974 261.467C447.071 264.656 443.733 267.582 441.656 271.421C439.467 275.468 439.383 280.066 440.881 284.365C442.715 289.624 446.329 293.911 450.009 297.98C454.095 302.498 458.41 307.126 460.147 313.116C460.358 313.842 461.471 313.473 461.261 312.748C458.24 302.327 448.123 296.407 443.299 287.021C441.047 282.641 440.102 277.556 442.213 272.933C444.058 268.89 447.499 265.87 450.465 262.666C453.581 259.302 455.969 255.611 457.2 251.157C458.459 246.601 458.591 241.783 458.255 237.093C457.414 226.465 454.908 216.034 450.827 206.184C446.232 194.917 439.743 184.518 431.641 175.439C431.14 174.877 430.367 175.76 430.865 176.319Z" fill="white"/>
<path d="M456.612 228.221C460.237 227.341 463.432 225.2 465.625 222.182C467.818 219.164 468.867 215.464 468.584 211.744C468.525 210.992 467.352 211.049 467.412 211.803C467.682 215.266 466.705 218.712 464.657 221.519C462.608 224.325 459.625 226.307 456.244 227.107C455.509 227.281 455.881 228.394 456.612 228.221Z" fill="white"/>
<path d="M451.659 260.044C445.11 256.134 440.276 249.9 438.121 242.584C437.908 241.859 436.794 242.228 437.006 242.952C439.264 250.56 444.308 257.038 451.131 261.092C451.781 261.478 452.306 260.428 451.659 260.044Z" fill="white"/>
<path d="M445.143 196.028C443.811 196.661 442.343 196.953 440.87 196.878C439.397 196.804 437.966 196.364 436.705 195.6C436.06 195.206 435.536 196.256 436.178 196.648C437.575 197.486 439.156 197.969 440.783 198.055C442.41 198.142 444.033 197.828 445.511 197.142C445.655 197.089 445.774 196.983 445.844 196.846C445.913 196.708 445.927 196.549 445.884 196.401C445.834 196.254 445.729 196.132 445.59 196.062C445.451 195.992 445.29 195.98 445.143 196.028Z" fill="white"/>
<path d="M354.317 223.005C354.713 223.262 355.109 223.52 355.506 223.787C360.812 227.276 365.826 231.191 370.498 235.492C370.864 235.819 371.231 236.155 371.587 236.492C382.733 246.974 391.836 259.435 398.433 273.24C401.053 278.736 403.251 284.423 405.008 290.253C407.435 298.303 409.425 307.225 414.227 313.811C414.721 314.503 415.257 315.165 415.832 315.791H459.234C459.333 315.742 459.432 315.702 459.531 315.652L461.264 315.732C461.195 315.425 461.116 315.108 461.046 314.801C461.007 314.623 460.957 314.444 460.918 314.266C460.888 314.147 460.858 314.028 460.838 313.919C460.829 313.88 460.819 313.84 460.809 313.811C460.789 313.702 460.759 313.603 460.739 313.504C460.304 311.731 459.855 309.959 459.393 308.186C459.393 308.176 459.393 308.176 459.383 308.166C455.828 294.669 451.114 281.35 444.529 269.17C444.331 268.804 444.133 268.427 443.915 268.061C440.916 262.587 437.475 257.368 433.626 252.455C431.51 249.771 429.259 247.197 426.883 244.741C420.73 238.407 413.619 233.08 405.81 228.956C390.243 220.737 372.221 217.588 355.585 222.609C355.159 222.737 354.743 222.866 354.317 223.005Z" fill="#CDCDCD"/>
<path d="M354.415 223.556C376.028 227.848 395.739 238.842 410.748 254.975C413.943 258.45 416.881 262.254 418.849 266.57C420.735 270.792 421.457 275.442 420.938 280.037C420.54 284.331 419.637 288.677 420.29 292.993C420.978 297.542 423.679 301.264 427.464 303.794C432.095 306.889 437.561 308.136 442.949 309.17C448.932 310.317 455.164 311.414 460.157 315.151C460.762 315.604 461.429 314.639 460.825 314.187C452.138 307.685 440.497 309.049 430.993 304.46C426.559 302.318 422.743 298.827 421.645 293.865C420.684 289.525 421.612 285.043 422.052 280.698C422.514 276.137 422.2 271.752 420.501 267.455C418.763 263.059 415.967 259.132 412.875 255.59C405.805 247.61 397.524 240.791 388.335 235.383C377.882 229.153 366.441 224.757 354.505 222.386C353.767 222.239 353.682 223.41 354.415 223.556Z" fill="white"/>
<path d="M406.222 249.495C408.587 246.61 409.849 242.977 409.783 239.247C409.717 235.517 408.327 231.931 405.861 229.131C405.36 228.566 404.459 229.318 404.961 229.884C407.261 232.487 408.556 235.827 408.61 239.301C408.664 242.774 407.475 246.153 405.257 248.827C404.776 249.409 405.743 250.074 406.222 249.495Z" fill="white"/>
<path d="M421.427 277.886C413.844 278.707 406.231 276.64 400.105 272.096C399.499 271.646 398.831 272.611 399.437 273.061C405.82 277.777 413.748 279.912 421.636 279.041C422.388 278.957 422.174 277.803 421.427 277.886Z" fill="white"/>
<path d="M377.682 230.696C377 232.004 376.004 233.121 374.783 233.948C373.562 234.775 372.155 235.285 370.688 235.434C369.935 235.508 370.15 236.662 370.897 236.589C372.517 236.417 374.071 235.851 375.422 234.94C376.772 234.029 377.88 232.802 378.647 231.364C378.73 231.235 378.762 231.079 378.734 230.927C378.707 230.775 378.622 230.64 378.499 230.548C378.37 230.46 378.213 230.427 378.06 230.454C377.907 230.482 377.771 230.569 377.682 230.696Z" fill="white"/>
<path d="M526.566 316.435H0.644254C0.473387 316.435 0.309518 316.368 0.188697 316.247C0.0678761 316.126 0 315.962 0 315.791C0 315.62 0.0678761 315.457 0.188697 315.336C0.309518 315.215 0.473387 315.147 0.644254 315.147H526.356C526.527 315.147 526.69 315.215 526.811 315.336C526.932 315.457 527 315.62 527 315.791C527 316.147 526.922 316.435 526.566 316.435Z" fill="#CACACA"/>
<path d="M184.467 373.13H68.2907C68.1199 373.13 67.956 373.062 67.8352 372.941C67.7144 372.82 67.6465 372.656 67.6465 372.486C67.6465 372.315 67.7144 372.151 67.8352 372.03C67.956 371.909 68.1199 371.841 68.2907 371.841H184.257C184.427 371.841 184.591 371.909 184.712 372.03C184.833 372.151 184.901 372.315 184.901 372.486C184.901 372.841 184.823 373.13 184.467 373.13Z" fill="#CACACA"/>
<path d="M366.791 398.256H250.615C250.444 398.256 250.28 398.188 250.159 398.067C250.039 397.946 249.971 397.782 249.971 397.612C249.971 397.441 250.039 397.277 250.159 397.156C250.28 397.035 250.444 396.967 250.615 396.967H366.581C366.752 396.967 366.915 397.035 367.036 397.156C367.157 397.277 367.225 397.441 367.225 397.612C367.225 397.967 367.147 398.256 366.791 398.256Z" fill="#CACACA"/>
<path d="M476.315 372.486H360.138C359.968 372.486 359.804 372.418 359.683 372.297C359.562 372.176 359.494 372.012 359.494 371.841C359.494 371.67 359.562 371.507 359.683 371.386C359.804 371.265 359.968 371.197 360.138 371.197H476.104C476.275 371.197 476.439 371.265 476.56 371.386C476.681 371.507 476.748 371.67 476.748 371.841C476.748 372.197 476.67 372.486 476.315 372.486Z" fill="#CACACA"/>
<path d="M214.704 348.004C207.487 348.004 200.88 347.312 195.63 345.678C189.391 343.735 185.473 340.593 183.985 336.332C183.285 334.523 183.076 332.562 183.379 330.646C183.682 328.73 184.486 326.929 185.709 325.424C194.94 313.396 226.971 310.004 231.269 309.603L239.989 293.092C240.547 289.153 237.907 286.171 242.467 286.096L296.414 285.363C300.893 285.269 299.622 288.043 300.388 291.884L308.608 306.556L273.234 321.485L278.582 334.518L278.233 334.72C267.88 340.726 238.107 348.003 214.704 348.004Z" fill="#2F2E41"/>
<path d="M303.71 307.182C303.71 307.182 353.111 301.529 349.889 324.143C346.668 346.757 309.079 362.775 252.16 324.143L258.604 312.836C258.604 312.836 279.814 311.781 292.702 306.127L303.71 307.182Z" fill="#2F2E41"/>
<path d="M233.771 204.733C233.771 204.733 224.381 203.026 221.82 217.537C219.26 232.048 215.158 266.42 215.158 266.42L202.421 310.574C200.919 311.371 199.675 312.579 198.834 314.058C197.993 315.536 197.59 317.223 197.672 318.922C197.753 320.62 198.317 322.261 199.296 323.651C200.276 325.041 201.63 326.125 203.202 326.774C204.774 327.423 206.499 327.612 208.174 327.317C209.849 327.023 211.406 326.259 212.662 325.113C213.919 323.967 214.824 322.487 215.271 320.846C215.718 319.205 215.689 317.471 215.187 315.846L232.229 268.985L235.478 228.637V207.495C235.478 206.922 235.318 206.36 235.016 205.872C234.715 205.384 234.283 204.99 233.771 204.733Z" fill="#FEB8B8"/>
<path d="M299.86 204.733C299.86 204.733 309.25 203.026 311.811 217.537C314.371 232.048 318.473 266.42 318.473 266.42L331.21 310.574C332.712 311.371 333.956 312.579 334.797 314.058C335.638 315.536 336.041 317.223 335.959 318.922C335.878 320.62 335.314 322.261 334.335 323.651C333.355 325.041 332 326.125 330.429 326.774C328.857 327.423 327.132 327.612 325.457 327.317C323.782 327.023 322.225 326.259 320.969 325.113C319.712 323.967 318.807 322.487 318.36 320.846C317.913 319.205 317.942 317.471 318.443 315.846L301.402 268.985L298.153 228.637V207.495C298.153 206.922 298.313 206.36 298.615 205.872C298.916 205.384 299.347 204.99 299.86 204.733Z" fill="#FEB8B8"/>
<path d="M299.145 192.739L281.385 186.096L246.96 185.652L232.143 192.739L236.304 216.657C236.304 216.657 227.902 230.885 237.153 245.115L239.229 295.819C239.229 295.819 272.419 315.065 300.434 291.954L294.102 244.811C294.102 244.811 304.693 222.939 296.484 214.813L299.145 192.739Z" fill="#42B093"/>
<path d="M291.911 200.172L299.145 192.739C299.145 192.739 314.932 201.043 314.607 228.817L294.692 222.68L291.911 200.172Z" fill="#42B093"/>
<path d="M240.179 200.171L232.494 192.486C232.494 192.486 218.932 202.975 219.258 230.75L237.398 222.679L240.179 200.171Z" fill="#42B093"/>
<path d="M290.278 328.832C290.278 328.832 284.746 317.193 275.507 322.773C266.269 328.352 249.27 337.62 249.27 337.62C249.27 337.62 245.294 344.266 253.976 342.518C262.658 340.77 290.547 339.406 290.547 339.406L290.278 328.832Z" fill="#FEB8B8"/>
<path d="M274.908 120.765C274.987 120.69 275.068 120.622 275.145 120.545C280.089 115.602 281.091 108.588 277.383 104.881C273.879 101.377 267.426 102.084 262.554 106.344C258.377 102.368 252.777 101.259 249.152 104.004C244.971 107.17 245.004 114.254 249.225 119.828C249.514 120.209 249.817 120.57 250.129 120.917C244.512 122.973 239.662 126.705 236.236 131.607C232.81 136.51 230.973 142.347 230.973 148.328V176.108C230.973 176.923 231.133 177.73 231.445 178.482C231.757 179.235 232.214 179.919 232.79 180.495C233.366 181.071 234.049 181.527 234.802 181.839C235.555 182.151 236.361 182.311 237.176 182.311H288.52C290.11 182.311 291.635 181.68 292.759 180.555C293.884 179.431 294.515 177.906 294.515 176.316V148.328C294.514 142.266 292.626 136.355 289.112 131.416C285.599 126.477 280.634 122.754 274.908 120.765Z" fill="#2F2E41"/>
<path d="M280.783 172.404C290.298 162.889 290.298 147.462 280.783 137.947C271.268 128.432 255.842 128.433 246.327 137.947C236.812 147.462 236.812 162.889 246.327 172.404C255.842 181.919 271.268 181.919 280.783 172.404Z" fill="#FFB6B6"/>
<path d="M237.954 139.85C243.522 143.688 250.13 145.73 256.892 145.703C254.48 147.376 251.734 148.505 248.843 149.014C257.834 150.943 267.125 150.995 276.137 149.168C278.14 148.847 280.073 148.183 281.85 147.205C282.736 146.711 283.508 146.035 284.116 145.222C284.723 144.41 285.153 143.478 285.377 142.489C285.976 139.068 283.31 135.96 280.54 133.865C276.299 130.707 271.409 128.531 266.223 127.495C261.038 126.459 255.687 126.588 250.558 127.874C247.209 128.74 243.853 130.202 241.678 132.892C239.503 135.582 238.858 139.728 240.931 142.498L237.954 139.85Z" fill="#2F2E41"/>
<path d="M107.635 91.2307L108.403 90.1956L128.858 105.368C127.746 101.98 123.811 91.2401 117.362 86.9548C109.656 81.8355 104.235 83.428 101.281 87.8735C98.3278 92.319 98.9603 97.9336 106.666 103.053C113.197 107.393 124.833 106.79 128.228 106.505L107.635 91.2307Z" fill="#42B093"/>
<path d="M415.395 8.16404L416.344 9.03537L399.127 27.8008C402.612 27.0476 413.703 24.2515 418.636 18.2823C424.529 11.1512 423.509 5.59375 419.395 2.19385C415.28 -1.20605 409.631 -1.16102 403.737 5.97015C398.742 12.0149 398.132 23.6502 398.062 27.0561L415.395 8.16404Z" fill="#42B093"/>
<path d="M137.721 208.527L138.671 209.398L121.453 228.164C124.938 227.411 136.029 224.615 140.962 218.645C146.855 211.514 145.835 205.957 141.721 202.557C137.607 199.157 131.957 199.202 126.063 206.333C121.068 212.378 120.458 224.013 120.388 227.419L137.721 208.527Z" fill="#42B093"/>
<path d="M283.308 29.6681L284.423 30.3136L271.668 52.3567C274.908 50.868 285.133 45.741 288.659 38.8468C292.871 30.6106 290.675 25.4049 285.923 22.9745C281.171 20.5441 275.664 21.8092 271.452 30.0455C267.881 37.0271 269.8 48.5192 270.467 51.8598L283.308 29.6681Z" fill="#42B093"/>
<path d="M402.494 167.538L403.61 168.184L390.855 190.227C394.095 188.738 404.319 183.611 407.846 176.717C412.058 168.481 409.861 163.275 405.109 160.845C400.358 158.414 394.851 159.68 390.638 167.916C387.067 174.897 388.986 186.39 389.654 189.73L402.494 167.538Z" fill="#42B093"/>
</g>
<defs>
<clipPath id="clip0_27_209">
<rect width="527" height="398.256" fill="white"/>
</clipPath>
</defs>
</svg>
