<svg width="607" height="459" viewBox="0 0 607 459" fill="none" xmlns="http://www.w3.org/2000/svg">
<g clip-path="url(#clip0_16_440)">
<path d="M0.860657 449.429H242.458C242.682 449.429 242.896 449.339 243.054 449.181C243.212 449.023 243.301 448.808 243.301 448.584C243.301 448.36 243.212 448.146 243.054 447.987C242.896 447.829 242.682 447.739 242.458 447.739H0.860657C0.636459 447.739 0.421448 447.828 0.262924 447.986C0.104385 448.145 0.0153198 448.36 0.0153198 448.584C0.0153198 448.808 0.104385 449.023 0.262924 449.182C0.421448 449.34 0.636459 449.429 0.860657 449.429Z" fill="#3F3D56"/>
<path d="M114.89 346.922C101.951 346.922 91.4616 336.433 91.4616 323.493C91.4616 310.554 101.951 300.064 114.89 300.064C127.83 300.064 138.319 310.554 138.319 323.493C138.319 336.433 127.83 346.922 114.89 346.922Z" fill="#2F2E41"/>
<path d="M114.416 348.992C104.786 348.992 96.9785 341.185 96.9785 331.554C96.9785 321.924 104.786 314.117 114.416 314.117C124.046 314.117 131.854 321.924 131.854 331.554C131.854 341.185 124.046 348.992 114.416 348.992Z" fill="#A0616A"/>
<path d="M87.9117 356.862C87.9117 356.862 119.86 351.182 140.449 358.281L134.415 406.204L135.834 414.014L93.2365 412.594L96.0763 404.784L87.9117 356.862Z" fill="#A0616A"/>
<path d="M110.114 408.575C117.469 408.487 124.815 408.022 132.122 407.18C133.623 407.015 135.007 406.293 136.001 405.156C136.995 404.02 137.527 402.552 137.49 401.042L136.972 378.631L136.912 378.543C130.739 369.602 133.746 363.072 136.059 359.556C136.547 358.814 136.807 357.944 136.806 357.056C137.16 356.562 137.241 357.343 137.02 356.786C136.911 356.51 136.735 356.266 136.507 356.075C136.279 355.884 136.008 355.754 135.717 355.695L132.192 354.99C131.769 354.906 131.33 354.978 130.956 355.194C130.583 355.409 130.301 355.754 130.163 356.163C128.979 359.696 124.363 371.065 113.787 371.063C104.951 371.061 101.654 358.559 101.457 355.67C101.424 355.223 101.224 354.804 100.896 354.498C100.568 354.193 100.136 354.022 99.6871 354.022H95.2849C95.0063 354.015 94.7298 354.071 94.4758 354.186C94.2219 354.301 93.997 354.471 93.8179 354.685C93.5986 354.957 93.4651 355.287 93.4343 355.635C93.4035 355.983 93.4767 356.332 93.6448 356.638C98.6688 365.875 91.3267 380.49 91.2519 380.636L91.2048 380.729L93.2763 402.236C93.4016 403.497 93.9194 404.688 94.7567 405.64C95.5939 406.592 96.7086 407.258 97.9439 407.544C101.147 408.297 105.476 408.575 110.114 408.575Z" fill="#CCCCCC"/>
<path d="M150.655 458.479C155.426 458.48 159.794 457.953 163.264 456.712C167.389 455.236 169.979 452.848 170.963 449.616C171.428 448.24 171.566 446.776 171.369 445.338C171.171 443.899 170.641 442.527 169.822 441.328C163.72 432.191 142.545 429.616 139.704 429.309L138.198 416.766C138.02 415.319 137.325 413.984 136.242 413.008C135.158 412.031 133.759 411.479 132.301 411.451L96.6379 410.895C95.2058 410.861 93.8092 411.342 92.7022 412.251C91.5953 413.161 90.8515 414.437 90.6063 415.848L88.5797 426.995L111.965 438.333L108.429 448.234L108.659 448.388C115.504 452.951 135.186 458.478 150.655 458.479Z" fill="#2F2E41"/>
<path d="M91.8152 425.373C91.8152 425.373 59.1567 421.113 61.2866 438.153C63.4165 455.192 88.2653 467.261 125.894 438.153L121.634 429.633C121.634 429.633 100.335 435.313 91.8152 431.053V425.373Z" fill="#2F2E41"/>
<path d="M120.925 431.763C120.925 431.763 120.925 423.243 128.025 423.953C135.125 424.663 147.904 425.373 147.904 425.373C147.904 425.373 152.164 428.213 146.484 429.633C140.804 431.053 123.765 438.153 123.765 438.153L120.925 431.763Z" fill="#A0616A"/>
<path d="M108.855 430.343C108.855 430.343 108.855 421.823 101.756 422.533C94.6561 423.243 81.8767 423.953 81.8767 423.953C81.8767 423.953 77.617 426.793 83.2967 428.213C88.9764 429.633 106.016 436.733 106.016 436.733L108.855 430.343Z" fill="#A0616A"/>
<path d="M66.3134 428.729L76.9071 392.005C76.9071 392.005 79.037 379.225 81.1669 367.156C83.2968 355.087 91.1064 356.506 91.1064 356.506L92.5264 357.216V376.386L91.1064 394.135L76.9317 433.115C77.3492 434.467 77.3734 435.909 77.0015 437.274C76.6296 438.639 75.877 439.87 74.8316 440.824C73.7861 441.777 72.491 442.413 71.0976 442.658C69.7041 442.902 68.2697 442.746 66.9621 442.206C65.6544 441.665 64.5275 440.764 63.7128 439.608C62.8981 438.451 62.4294 437.086 62.3614 435.673C62.2934 434.26 62.6289 432.857 63.3287 431.627C64.0285 430.397 65.0637 429.392 66.3134 428.729Z" fill="#A0616A"/>
<path d="M137.965 357.927C137.965 357.927 145.774 356.507 147.904 368.576C150.034 380.645 152.164 393.425 152.164 393.425L162.758 430.149C164.006 430.813 165.04 431.818 165.738 433.046C166.437 434.275 166.772 435.678 166.703 437.09C166.635 438.502 166.166 439.865 165.352 441.021C164.538 442.176 163.412 443.077 162.105 443.616C160.798 444.156 159.365 444.313 157.973 444.069C156.581 443.824 155.286 443.189 154.241 442.237C153.197 441.285 152.444 440.055 152.072 438.691C151.7 437.327 151.723 435.886 152.139 434.535L137.965 395.555L136.545 377.806V360.224C136.545 359.747 136.677 359.279 136.928 358.874C137.179 358.468 137.538 358.14 137.965 357.927Z" fill="#A0616A"/>
<path d="M131.676 320.842C124.866 324.999 117.189 327.529 109.241 328.234L111.606 325.401C109.884 326.037 108.073 326.397 106.238 326.467C105.32 326.493 104.408 326.304 103.576 325.915C102.743 325.525 102.014 324.946 101.446 324.224C100.982 323.474 100.707 322.622 100.643 321.743C100.579 320.863 100.729 319.981 101.08 319.172C101.801 317.558 102.922 316.156 104.338 315.098C106.848 313.113 109.81 311.779 112.96 311.216C116.111 310.653 119.351 310.878 122.393 311.871C124.48 312.495 126.349 313.694 127.786 315.33C128.492 316.155 128.983 317.142 129.214 318.203C129.444 319.263 129.408 320.365 129.108 321.408" fill="#2F2E41"/>
<path d="M112.686 302.665C118.185 297.088 124.841 292.784 132.184 290.057C136.897 288.311 142.027 287.232 146.954 288.223C151.882 289.215 156.542 292.624 157.917 297.458C159.041 301.412 157.88 305.668 156.135 309.39C154.391 313.111 152.062 316.562 150.651 320.423C149.212 324.361 148.779 328.597 149.392 332.746C150.005 336.895 151.644 340.825 154.161 344.179C156.678 347.533 159.993 350.206 163.805 351.954C167.617 353.702 171.805 354.471 175.989 354.19C171.148 354.839 166.685 357.115 161.953 358.326C157.22 359.537 151.635 359.454 148.118 356.064C144.397 352.477 144.323 346.645 144.503 341.48C144.77 333.801 145.037 326.123 145.305 318.445C145.441 314.529 145.558 310.488 144.146 306.833C142.733 303.178 139.377 299.978 135.459 300.011C132.49 300.036 129.862 301.835 127.48 303.609C125.099 305.383 122.578 307.276 119.621 307.54C116.663 307.804 113.286 305.615 113.507 302.653" fill="#2F2E41"/>
<path d="M268.428 432.369H580.813C587.495 432.362 593.901 429.704 598.626 424.979C603.351 420.254 606.009 413.848 606.017 407.166V25.2038C606.009 18.5217 603.351 12.1154 598.626 7.39037C593.901 2.66538 587.495 0.007554 580.813 0H268.428C261.745 0.007569 255.339 2.66539 250.614 7.39038C245.889 12.1154 243.231 18.5217 243.224 25.2038V407.166C243.231 413.848 245.889 420.254 250.614 424.979C255.339 429.704 261.745 432.362 268.428 432.369Z" fill="#E6E6E6"/>
<path d="M277.658 415.33H571.584C574.69 415.327 577.668 414.091 579.864 411.895C582.06 409.699 583.295 406.722 583.299 403.616V51.4726C583.295 48.3668 582.06 45.3892 579.864 43.1931C577.668 40.9969 574.69 39.7616 571.584 39.7581H277.658C274.553 39.7616 271.575 40.9969 269.379 43.1931C267.183 45.3892 265.947 48.3668 265.944 51.4726V403.616C265.947 406.722 267.183 409.699 269.379 411.895C271.575 414.091 274.553 415.327 277.658 415.33Z" fill="white"/>
<path d="M370.854 165.043C375.629 153.612 383.046 144.076 393.811 137.756C405.122 131.116 418.033 125.586 431.041 123.592C444.062 121.668 457.339 122.411 470.064 125.776C476.198 127.365 482.961 129.21 488.134 133.014C493.08 136.65 496.468 142.633 499.226 148.007C501.869 153.155 503.516 158.824 502.086 164.591C500.768 169.904 497.083 174.33 492.867 177.66C489.102 180.635 483.836 184.572 478.799 182.729C478.513 182.624 478.24 182.486 477.986 182.318C469.288 184.965 460.64 181.116 451.711 178.103C446.285 176.271 440.829 175.345 435.379 177.631C430.01 179.883 425.639 184.308 422.436 189.077C419.389 193.614 417.383 198.765 414.04 203.114C412.377 205.353 410.263 207.218 407.835 208.59C405.406 209.961 402.717 210.808 399.941 211.075C389.152 212.282 374.833 211.171 368.618 200.956C361.995 190.071 366.329 175.877 370.854 165.043ZM480.982 148.326C479.382 148.507 477.782 148.689 476.181 148.87C479.23 149.419 482.083 150.756 484.455 152.749C485.357 153.51 486.193 154.346 486.956 155.248C486.934 155.175 486.921 155.105 486.898 155.031C486.427 153.566 485.658 152.214 484.64 151.06C483.623 149.906 482.377 148.975 480.982 148.326ZM427.261 158.544C426.906 158.811 426.492 158.987 426.054 159.059C426.003 159.067 425.952 159.077 425.9 159.086C425.603 159.256 425.305 159.426 425.005 159.593C425.039 159.64 425.065 159.692 425.097 159.74C425.828 159.665 426.56 159.592 427.292 159.519C427.24 159.197 427.23 158.869 427.261 158.544ZM407.896 181.443C408.058 181.614 408.2 181.802 408.321 182.005C408.393 181.901 408.465 181.796 408.537 181.692C408.338 181.575 408.122 181.491 407.896 181.443ZM395.39 194.979C394.664 195.074 393.939 195.17 393.214 195.265C393.349 195.5 393.449 195.755 393.509 196.019C394.023 196.036 394.541 196.045 395.06 196.047L395.39 194.979ZM384.886 188.806C384.594 188.756 384.302 188.706 384.011 188.656C383.552 188.582 383.115 188.409 382.731 188.148C382.729 188.199 382.725 188.251 382.723 188.302C382.717 188.477 382.7 188.695 382.678 188.943C382.75 189.069 382.822 189.193 382.899 189.317C383.561 189.147 384.224 188.977 384.886 188.806ZM422.186 150.233C422.534 149.942 422.928 149.711 423.351 149.547C425.404 148.754 427.508 148.096 429.648 147.578C429.968 147.277 430.281 146.967 430.587 146.65C428.78 147.007 426.994 147.461 425.236 148.012C422.983 148.734 420.772 149.584 418.615 150.558C419.806 150.425 420.996 150.317 422.186 150.233ZM402.093 151.579C403.141 150.924 404.196 150.28 405.258 149.649C404.17 150.263 403.097 150.905 402.04 151.578L402.093 151.579ZM380.429 161.466C383.24 158.027 386.35 154.842 389.721 151.949C389.461 151.351 389.33 150.705 389.337 150.052C385.804 153.382 382.801 157.231 380.429 161.466ZM420.832 133.322C421.276 133.219 421.72 133.116 422.165 133.016C426.389 132.062 430.692 131.035 435.033 130.164C434.8 130.191 434.567 130.213 434.335 130.243C429.748 130.85 425.228 131.881 420.832 133.322Z" fill="#42B093"/>
<path d="M424.619 27.3336C419.914 27.3336 416.099 23.5193 416.099 18.814C416.099 14.1088 419.914 10.2944 424.619 10.2944C429.324 10.2944 433.139 14.1088 433.139 18.814C433.139 23.5193 429.324 27.3336 424.619 27.3336Z" fill="white"/>
<path d="M511.264 353.856C511.267 353.856 511.271 353.856 511.274 353.856C511.587 353.858 511.89 353.97 512.128 354.174L520.392 361.822V354.363C520.392 354.296 520.405 354.23 520.43 354.169C520.455 354.108 520.493 354.052 520.54 354.005C520.587 353.958 520.643 353.92 520.704 353.895C520.766 353.869 520.831 353.856 520.898 353.856H522.944C523.01 353.856 523.076 353.869 523.138 353.895C523.199 353.92 523.255 353.958 523.302 354.005C523.349 354.052 523.386 354.108 523.412 354.169C523.437 354.23 523.45 354.296 523.45 354.363V372.24C523.45 372.307 523.437 372.373 523.412 372.434C523.386 372.495 523.349 372.551 523.302 372.598C523.255 372.645 523.199 372.683 523.138 372.708C523.076 372.734 523.01 372.747 522.944 372.747H520.908C520.774 372.747 520.645 372.693 520.55 372.598C520.455 372.503 520.401 372.375 520.401 372.24V364.831L512.138 372.439C511.899 372.64 511.596 372.749 511.284 372.747C510.928 372.752 510.585 372.616 510.33 372.368C510.075 372.12 509.929 371.781 509.923 371.426V355.217C509.922 355.04 509.956 354.864 510.022 354.699C510.089 354.535 510.187 354.385 510.312 354.259C510.436 354.132 510.585 354.032 510.748 353.963C510.911 353.894 511.087 353.858 511.264 353.856Z" fill="#42B093"/>
<path d="M324.358 353.906L324.369 353.906H326.355C326.422 353.906 326.487 353.919 326.549 353.944C326.61 353.97 326.666 354.007 326.713 354.054C326.76 354.101 326.798 354.157 326.823 354.219C326.848 354.28 326.862 354.346 326.862 354.412V361.832L335.125 354.224C335.366 354.018 335.672 353.906 335.989 353.906V353.856C336.166 353.855 336.342 353.889 336.507 353.955C336.671 354.022 336.821 354.12 336.947 354.245C337.073 354.369 337.174 354.518 337.243 354.681C337.312 354.844 337.348 355.02 337.349 355.197C337.35 355.204 337.35 355.21 337.349 355.217V371.446C337.349 371.804 337.207 372.147 336.954 372.401C336.701 372.654 336.357 372.796 335.999 372.796L335.989 372.796C335.673 372.8 335.367 372.691 335.125 372.488L326.862 364.831V372.29C326.862 372.356 326.848 372.422 326.823 372.484C326.798 372.545 326.76 372.601 326.713 372.648C326.666 372.695 326.61 372.732 326.549 372.758C326.487 372.783 326.422 372.796 326.355 372.796H324.369C324.302 372.798 324.236 372.786 324.174 372.762C324.112 372.737 324.056 372.701 324.008 372.655C323.96 372.609 323.921 372.554 323.895 372.493C323.868 372.432 323.853 372.366 323.852 372.3V354.412C323.852 354.346 323.865 354.28 323.891 354.219C323.916 354.157 323.953 354.101 324 354.054C324.047 354.007 324.103 353.97 324.165 353.944C324.226 353.919 324.292 353.906 324.358 353.906Z" fill="#42B093"/>
<path d="M427.034 354.254H431.076C432.173 354.254 433.062 355.143 433.062 356.24V371.078C433.062 372.175 432.173 373.064 431.076 373.064H427.034C425.937 373.064 425.048 372.175 425.048 371.078V356.24C425.048 355.143 425.937 354.254 427.034 354.254Z" fill="#42B093"/>
<path d="M416.178 354.254H420.25C420.777 354.254 421.282 354.463 421.655 354.835C422.027 355.208 422.236 355.713 422.236 356.24V371.078C422.236 371.605 422.027 372.11 421.655 372.483C421.282 372.855 420.777 373.064 420.25 373.064H416.178C415.651 373.064 415.146 372.855 414.773 372.483C414.401 372.11 414.191 371.605 414.191 371.078V356.24C414.191 355.713 414.401 355.208 414.773 354.835C415.146 354.463 415.651 354.254 416.178 354.254Z" fill="#42B093"/>
<path d="M305.77 333.347H541.483C541.964 333.344 542.425 333.151 542.765 332.81C543.104 332.468 543.295 332.006 543.295 331.525C543.295 331.043 543.104 330.581 542.765 330.24C542.425 329.898 541.964 329.705 541.483 329.702H305.77C305.53 329.701 305.292 329.747 305.07 329.838C304.847 329.929 304.645 330.063 304.475 330.232C304.304 330.402 304.169 330.603 304.077 330.825C303.985 331.047 303.937 331.284 303.937 331.525C303.937 331.765 303.985 332.003 304.077 332.224C304.169 332.446 304.304 332.648 304.475 332.817C304.645 332.986 304.847 333.12 305.07 333.211C305.292 333.302 305.53 333.348 305.77 333.347Z" fill="#42B093"/>
<path d="M471.424 337.32C472.571 337.322 473.693 336.984 474.648 336.348C475.603 335.712 476.348 334.808 476.789 333.749C477.23 332.689 477.347 331.523 477.125 330.398C476.903 329.272 476.352 328.238 475.543 327.425C474.733 326.613 473.7 326.059 472.575 325.833C471.451 325.607 470.284 325.72 469.224 326.157C468.163 326.594 467.256 327.336 466.617 328.289C465.978 329.242 465.636 330.363 465.634 331.51V331.52C465.634 333.056 466.244 334.53 467.329 335.618C468.415 336.705 469.888 337.317 471.424 337.32Z" fill="#CCCCCC"/>
<path d="M473.148 334.31H542.508C543.246 334.308 543.954 334.015 544.475 333.492C544.996 332.97 545.289 332.262 545.289 331.525C545.289 330.787 544.996 330.079 544.475 329.557C543.954 329.035 543.246 328.741 542.508 328.74H473.148C472.761 328.74 472.39 328.894 472.116 329.167C471.843 329.441 471.689 329.812 471.689 330.199V332.85C471.689 333.237 471.843 333.608 472.116 333.882C472.39 334.155 472.761 334.309 473.148 334.31Z" fill="#CCCCCC"/>
<path d="M417.16 254.014C421.181 253.902 426.184 253.761 430.036 250.947C431.184 250.074 432.126 248.961 432.799 247.686C433.471 246.41 433.856 245.003 433.927 243.563C433.997 242.54 433.829 241.514 433.436 240.567C433.044 239.619 432.438 238.775 431.665 238.101C429.652 236.4 426.713 236 423.545 236.932L426.827 212.947L424.418 212.617L420.56 240.814L422.571 239.891C424.904 238.821 428.106 238.277 430.095 239.958C430.584 240.397 430.964 240.943 431.207 241.554C431.451 242.164 431.55 242.822 431.497 243.477C431.438 244.549 431.149 245.595 430.649 246.545C430.15 247.496 429.451 248.327 428.602 248.983C425.604 251.174 421.616 251.456 417.092 251.583L417.16 254.014Z" fill="#3F3D56"/>
<path d="M438.742 215.016H451.839V217.447H438.742V215.016Z" fill="#3F3D56"/>
<path d="M397.402 215.016H410.499V217.447H397.402V215.016Z" fill="#3F3D56"/>
<path d="M474.592 181.436C485.139 180.233 493.307 170.128 494.204 159.875C495.272 147.677 488.168 136.092 478.422 129.247C468.231 122.089 455.533 119.1 443.247 118.442C419.28 117.249 395.727 125.013 377.166 140.223C367.961 147.869 359.363 157.608 356.104 169.372C353.274 179.589 355.577 191.164 363.794 198.319C365.827 200.073 368.201 201.386 370.767 202.176C373.332 202.966 376.034 203.215 378.701 202.909C385.077 202.247 390.96 198.894 396.052 195.192C405.957 187.989 414.089 177.956 426.158 174.193C435.006 171.433 446.489 173.862 451.897 181.864C453.124 183.696 453.919 185.782 454.222 187.966C454.334 188.432 454.265 188.923 454.028 189.339C453.792 189.756 453.406 190.067 452.949 190.21C452.482 190.335 451.985 190.272 451.565 190.034C451.145 189.795 450.836 189.401 450.705 188.936C449.285 178.857 436.893 175.096 428.196 177.398C415.516 180.754 407.005 192.069 396.601 199.258C391.132 203.037 384.911 206.059 378.202 206.601C372.419 207.055 366.68 205.292 362.149 201.67C353.261 194.652 349.862 182.581 351.827 171.714C354.103 159.129 362.574 148.343 371.867 139.992C390.709 123.242 415.169 114.206 440.375 114.685C453.231 114.98 466.645 117.634 477.721 124.429C488.464 131.02 496.767 142.047 497.853 154.865C498.808 166.147 492.755 177.947 482.364 182.89C479.914 184.05 477.287 184.792 474.592 185.084C472.264 185.349 472.283 181.699 474.592 181.436Z" fill="#3F3D56"/>
<path d="M98.9209 53.6721L100.395 55.0245L73.6705 84.152C79.08 82.9829 96.2949 78.6428 103.952 69.3775C113.099 58.3087 111.515 49.6825 105.13 44.4053C98.7436 39.128 89.9738 39.1979 80.8264 50.2668C73.0724 59.6494 72.1254 77.7094 72.0166 82.9959L98.9209 53.6721Z" fill="#42B093"/>
<path d="M168.462 113.672L166.988 115.025L193.712 144.152C188.303 142.983 171.088 138.643 163.431 129.378C154.284 118.309 155.867 109.683 162.253 104.405C168.639 99.128 177.409 99.1979 186.556 110.267C194.31 119.649 195.257 137.709 195.366 142.996L168.462 113.672Z" fill="#42B093"/>
<path d="M87.9209 197.672L89.3949 199.025L62.6705 228.152C68.08 226.983 85.2949 222.643 92.9517 213.378C102.099 202.309 100.515 193.683 94.1295 188.405C87.7436 183.128 78.9738 183.198 69.8264 194.267C62.0724 203.649 61.1254 221.709 61.0166 226.996L87.9209 197.672Z" fill="#42B093"/>
<path d="M196.462 241.672L194.988 243.025L221.712 272.152C216.303 270.983 199.088 266.643 191.431 257.378C182.284 246.309 183.867 237.683 190.253 232.405C196.639 227.128 205.409 227.198 214.556 238.267C222.31 247.649 223.257 265.709 223.366 270.996L196.462 241.672Z" fill="#42B093"/>
</g>
<defs>
<clipPath id="clip0_16_440">
<rect width="606" height="458.479" fill="white" transform="matrix(-1 0 0 1 606.017 0)"/>
</clipPath>
</defs>
</svg>
