<svg width="30" height="30" viewBox="0 0 30 30" fill="none" xmlns="http://www.w3.org/2000/svg">
<g clip-path="url(#clip0_27_112)">
<path d="M2.67701 12.9804C1.23278 14.0489 0.046875 14.9413 0.046875 14.9648C0.0527458 14.9824 1.23866 15.8806 2.68288 16.955L5.31302 18.91L5.34237 16.7025C6.1819 16.7789 6.63983 16.8376 6.89815 16.8904C7.15646 16.9374 7.64374 17.0783 7.98425 17.1957C8.32476 17.3131 8.83552 17.5421 9.12907 17.7006C9.41674 17.8591 9.85705 18.1409 10.0978 18.3229C10.3385 18.5049 10.7729 18.9041 11.0664 19.2035C11.3541 19.5088 11.7181 19.9432 11.8708 20.1663C12.0175 20.3953 12.2465 20.7769 12.3756 21.0176C12.5048 21.2583 12.6985 21.6928 12.7983 21.9863C12.8981 22.274 13.039 22.7495 13.1036 23.0431C13.221 23.5362 13.2328 23.771 13.2504 26.7886L13.268 30H16.7905C16.7905 25.456 16.7612 23.8826 16.7318 23.5421C16.6966 23.2016 16.6144 22.6614 16.5498 22.3386C16.4852 22.0157 16.3267 21.4344 16.1976 21.047C16.0684 20.6595 15.8101 20.0254 15.6222 19.638C15.4285 19.2505 15.1173 18.6928 14.9295 18.4051C14.7357 18.1115 14.3835 17.636 14.1369 17.3483C13.8962 17.0548 13.4735 16.6086 13.2034 16.3503C12.9334 16.092 12.5518 15.7573 12.358 15.6106C12.1643 15.4579 11.7944 15.1996 11.5361 15.0294C11.2778 14.865 10.7494 14.5714 10.3619 14.3777C9.97447 14.1898 9.34042 13.9315 8.95294 13.8023C8.56547 13.6732 7.98425 13.5147 7.66136 13.4501C7.33846 13.3796 6.6868 13.2916 6.21126 13.2505L5.34237 13.18L5.31302 11.0313L2.67701 12.9804ZM13.0332 2.63014L11.0899 5.2544L13.268 5.28376V14.1194C13.6966 14.4423 14.0899 14.7886 14.4246 15.1057L15.0293 15.6751C16.0038 14.7534 16.403 14.407 16.5381 14.3014L16.7905 14.1194V5.28376L18.9686 5.2544C15.9392 1.18004 15.041 0 15.0175 0C14.994 0 14.1017 1.18591 13.0332 2.63014ZM24.722 12.1057L24.7162 13.18C23.3717 13.2975 22.7201 13.3796 22.3972 13.4501C22.0743 13.5147 21.4931 13.6732 21.1056 13.8082C20.7181 13.9374 20.1604 14.1546 19.8727 14.2955C19.5792 14.4305 19.133 14.6712 18.8747 14.8239C18.6163 14.9824 18.1643 15.2877 17.8766 15.499C17.5831 15.7162 17.0723 16.1566 16.7377 16.4736L16.1271 17.0548C16.632 17.8297 16.9255 18.3464 17.1017 18.6986C17.2837 19.0568 17.5302 19.6204 17.6535 19.9491C17.7768 20.2838 17.9001 20.5479 17.9353 20.5362C17.9647 20.5303 18.0821 20.3836 18.1995 20.2133C18.3111 20.0489 18.5459 19.7319 18.7279 19.5205C18.904 19.3033 19.2621 18.9393 19.5205 18.7162C19.7788 18.4932 20.1604 18.1937 20.3717 18.0587C20.5772 17.9178 20.9706 17.6947 21.2347 17.5656C21.5048 17.4305 21.951 17.2427 22.2328 17.1487C22.5146 17.0548 22.9432 16.9374 23.1897 16.8845C23.4304 16.8376 23.8708 16.7789 24.1702 16.7495L24.7103 16.7025L24.7455 18.9159C26.7475 17.4305 27.9275 16.5558 28.6614 16.0157C29.3952 15.4755 29.9999 15.0059 29.9999 14.9706C29.9999 14.9413 28.8434 14.0607 27.4285 13.0157C26.0195 11.9706 24.8336 11.1018 24.7925 11.0724C24.7455 11.0431 24.722 11.3131 24.722 12.1057Z" fill="#007CF0"/>
</g>
<defs>
<clipPath id="clip0_27_112">
<rect width="30" height="30" fill="white"/>
</clipPath>
</defs>
</svg>
