<svg width="21" height="22" viewBox="0 0 21 22" fill="none" xmlns="http://www.w3.org/2000/svg">
<path d="M2.95216 0.280835C3.17768 0.185163 3.48519 0.0894911 3.63554 0.0621563C3.78588 0.0348214 4.07973 0.00748656 4.28474 0.000652846C4.48975 -0.00618087 4.83827 0.0416551 5.05011 0.0963248C5.26879 0.150995 6.19134 0.567851 7.10023 1.02571C8.01595 1.48357 9.12984 2.05077 9.58086 2.29678C10.0319 2.54279 10.6811 2.89815 11.0159 3.08949C11.3508 3.28083 12.1845 3.75919 12.861 4.14872C13.5376 4.54507 14.6583 5.22161 15.3554 5.65213C16.0524 6.08266 17.1595 6.8002 17.8155 7.23755C18.6014 7.76375 19.1207 8.16694 19.3394 8.40612C19.5171 8.61113 19.7631 8.97332 19.8929 9.21933C20.0159 9.46534 20.1663 9.83436 20.2141 10.0394C20.262 10.2444 20.303 10.6476 20.303 10.9278C20.303 11.2079 20.262 11.6111 20.2141 11.8161C20.1663 12.0212 20.0159 12.3902 19.8929 12.6362C19.7631 12.8822 19.5171 13.2444 19.3394 13.4494C19.1002 13.7159 18.574 14.1123 17.4396 14.8571C16.5786 15.4312 15.3144 16.2376 14.6378 16.6476C13.9613 17.0644 12.7654 17.7683 11.9727 18.2193C11.18 18.6704 10.1207 19.2649 9.61503 19.5382C9.10934 19.8116 7.96128 20.3993 7.07289 20.8435C6.17768 21.2945 5.25513 21.7045 5.02278 21.766C4.71526 21.848 4.44191 21.8685 4.07973 21.8412C3.79954 21.8139 3.38269 21.7319 3.15718 21.6567C2.93166 21.5747 2.57631 21.4175 2.3713 21.3013C2.16629 21.1783 1.7631 20.8503 1.47608 20.5701C1.06606 20.1601 0.895216 19.9278 0.676538 19.4699C0.519362 19.1419 0.36902 18.6977 0.328018 18.4448C0.287016 18.1988 0.218679 17.495 0.18451 16.8731C0.150342 16.2512 0.0820046 14.6521 0.0410023 13.3196C-0.0136674 11.5428 -0.0136674 10.2512 0.0410023 8.50179C0.0820046 7.18972 0.150342 5.6043 0.18451 4.98243C0.218679 4.36056 0.287016 3.65669 0.328018 3.41068C0.362187 3.16466 0.519362 2.71364 0.669704 2.40612C0.84738 2.0166 1.07289 1.69541 1.35991 1.3879C1.59909 1.14188 1.96128 0.827532 2.16629 0.690858C2.3713 0.554184 2.72665 0.369673 2.95216 0.280835Z" fill="#7732FF"/>
</svg>
