<svg width="70" height="70" viewBox="0 0 70 70" fill="none" xmlns="http://www.w3.org/2000/svg">
<path fill-rule="evenodd" clip-rule="evenodd" d="M32.5607 0C33.4633 0 33.9147 0.0683594 34.3797 0.273438C34.7216 0.423828 35.2823 0.820312 35.6515 1.14844C36.0345 1.50391 36.4174 2.03711 36.6225 2.47461C36.7867 2.88477 36.9645 3.48633 37.0055 3.82812C37.0465 4.19727 36.9918 4.75781 36.855 5.23633C36.732 5.67383 36.2943 6.53516 35.843 7.20508C35.419 7.875 34.8173 8.81836 34.5164 9.33789C34.2019 9.87109 33.8326 10.3086 33.6275 10.3906C33.395 10.5 33.1761 10.5 32.9163 10.3906C32.6975 10.3223 32.4787 10.1309 32.3966 9.98047C32.3145 9.83008 32.2598 9.57031 32.2598 9.39258C32.2598 9.22852 32.424 8.81836 32.6291 8.47656C32.8206 8.13477 33.395 7.21875 33.901 6.42578C34.4207 5.63281 34.872 4.85352 34.913 4.67578C34.9951 4.38867 34.9814 4.375 34.5574 4.53906C34.3113 4.62109 33.3129 5.09961 32.3282 5.5918C31.3572 6.09766 29.9349 6.9043 29.1827 7.39648C28.4305 7.90234 27.2954 8.72266 26.6526 9.24219C26.0098 9.76172 25.0115 10.6504 24.4097 11.2109C23.8216 11.7715 22.919 12.7285 22.413 13.3301C21.907 13.9316 21.1685 14.8613 20.7719 15.3809C20.3889 15.9004 19.6231 17.0762 19.0897 17.9785C18.5563 18.8809 17.7905 20.3301 17.4075 21.1914C17.0109 22.0527 16.4502 23.502 16.1493 24.4043C15.8484 25.3066 15.4382 26.7559 15.2467 27.6172C15.0552 28.4785 14.809 29.9277 14.686 30.8301C14.5629 31.8145 14.4671 33.4824 14.4671 35C14.4671 36.5176 14.5629 38.1855 14.686 39.1699C14.809 40.0723 15.0279 41.3711 15.1783 42.041C15.3151 42.7109 15.6023 43.832 15.7937 44.502C15.9852 45.1719 16.3955 46.3477 16.6964 47.0996C16.9972 47.8516 17.599 49.1777 18.0503 50.0391C18.4879 50.9004 19.2265 52.1992 19.6914 52.9102C20.1564 53.6211 20.9907 54.7969 21.5651 55.5078C22.1395 56.2187 23.2472 57.4492 24.0405 58.2422C24.8337 59.0352 25.9825 60.0879 26.5842 60.5664C27.186 61.0586 28.3485 61.9062 29.1827 62.4668C30.0033 63.0137 31.6444 63.9434 32.8069 64.5176C33.9694 65.0918 35.6926 65.8301 36.6362 66.1445C37.5799 66.4453 39.0159 66.8691 41.3545 67.416L42.9273 67.0469C43.7889 66.8555 45.2112 66.4453 46.0728 66.1445C46.9344 65.8437 48.261 65.3242 49.0132 64.9688C49.7653 64.627 50.9688 64.0117 51.68 63.6016C52.3912 63.1914 53.0887 62.7539 53.2391 62.6309C53.3759 62.5078 53.5673 62.248 53.6767 62.0293C53.7861 61.8242 53.8682 61.373 53.8682 61.0039C53.8682 60.5527 53.7725 60.2246 53.5536 59.8828C53.3759 59.623 52.9792 59.2949 52.692 59.1719C52.4048 59.0352 51.5432 58.707 50.7911 58.4336C50.0389 58.1738 48.5892 57.5313 47.5772 57.0391C46.5651 56.5332 44.9377 55.5898 43.953 54.9336C42.982 54.291 41.6554 53.334 41.0126 52.8145C40.3835 52.3086 39.2073 51.2422 38.4141 50.4492C37.6209 49.6562 36.5131 48.4258 35.9387 47.7148C35.3643 47.0039 34.448 45.7461 33.9147 44.9121C33.3676 44.0781 32.5881 42.793 32.1915 42.041C31.7812 41.2891 31.1247 39.8398 30.7144 38.8281C30.3042 37.8164 29.8118 36.4219 29.6203 35.752C29.4152 35.082 29.1417 34.002 28.9912 33.3594C28.8408 32.7168 28.622 31.5547 28.4989 30.7617C28.3758 29.9687 28.2391 28.1504 28.198 26.7285C28.157 25.1836 28.1843 23.4883 28.2801 22.5586C28.3621 21.6973 28.5263 20.4258 28.6357 19.7559C28.7587 19.0859 28.9502 18.0879 29.0733 17.5684C29.1964 17.0488 29.4152 16.502 29.552 16.3652C29.7161 16.2148 29.9759 16.1465 30.3042 16.1602C30.6461 16.1875 30.8786 16.3105 31.0563 16.543C31.3162 16.8848 31.3162 16.9121 30.9059 18.9355C30.6871 20.0703 30.4272 21.7246 30.3315 22.627C30.2358 23.5977 30.1947 25.2383 30.2494 26.6602C30.2905 27.9727 30.4272 29.7227 30.5503 30.5566C30.6734 31.3906 30.988 32.8535 31.2341 33.8379C31.4803 34.8223 31.9179 36.2305 32.1915 36.9824C32.465 37.7344 33.0394 39.0879 33.477 39.9902C33.9147 40.8926 34.6258 42.2188 35.0635 42.9297C35.4874 43.6406 36.267 44.7891 36.773 45.459C37.279 46.1289 38.1543 47.209 38.7287 47.8516C39.3031 48.4941 40.3151 49.4922 40.9716 50.0937C41.6417 50.6816 42.7358 51.584 43.4059 52.0898C44.0761 52.5957 45.2249 53.375 45.936 53.7988C46.6472 54.2363 47.9738 54.9473 48.8764 55.3848C49.779 55.8086 51.2287 56.4238 52.0903 56.7383C52.9519 57.0527 53.8682 57.4355 54.128 57.5996C54.3879 57.7637 54.8119 58.1465 55.058 58.4473C55.3042 58.748 55.6187 59.3086 55.7418 59.6777C55.8512 60.0605 55.9607 60.7305 55.947 61.1816C55.947 61.7285 55.8376 62.248 55.6324 62.7402C55.441 63.1641 55.0443 63.7109 54.6888 64.0527C54.3469 64.3535 53.6494 64.8594 53.116 65.1738C52.5826 65.4746 51.639 65.9941 50.9962 66.3086C50.3534 66.623 49.1909 67.1563 48.3977 67.4844C47.6045 67.7988 46.2232 68.2773 45.3206 68.5371C44.418 68.8105 43.2145 69.1113 42.6537 69.2344C42.093 69.3437 40.7664 69.5625 39.7134 69.7266C38.3594 69.918 37.0875 70 35.337 70C33.5591 70 32.3556 69.9316 31.029 69.7266C30.017 69.5762 28.6904 69.3574 28.0886 69.2344C27.4869 69.1113 26.2834 68.8105 25.4218 68.5645C24.5602 68.3047 23.1789 67.8262 22.3446 67.498C21.5104 67.1699 20.3205 66.6367 19.6778 66.3086C19.035 65.9941 17.9956 65.4199 17.3528 65.0371C16.71 64.6543 15.6296 63.9434 14.9321 63.4512C14.2483 62.959 13.1679 62.1113 12.5388 61.5781C11.9234 61.0312 11.1438 60.3066 10.8293 59.9648C10.4327 59.541 10.2412 59.2129 10.2412 58.9668C10.2412 58.748 10.378 58.4473 10.5558 58.2695C10.7199 58.0918 11.0207 57.9688 11.2396 57.9688C11.5131 57.9688 11.9507 58.2695 12.8807 59.1035C13.5645 59.7187 14.4535 60.4844 14.8227 60.7988C15.2057 61.0996 16.2177 61.8242 17.0793 62.3984C17.9409 62.9863 19.582 63.916 20.7035 64.4629C21.8386 65.0234 23.5618 65.748 24.5328 66.0762C25.5175 66.4043 26.9808 66.8418 27.8151 67.0332C28.6493 67.2246 29.9622 67.4844 30.7555 67.5937C31.5487 67.7031 32.8069 67.8398 33.5591 67.8809C34.7763 67.9629 34.8993 67.9492 34.7216 67.7715C34.6121 67.6621 34.1198 67.4023 33.6275 67.1973C33.1351 66.9922 32.0684 66.4863 31.2341 66.0625C30.3999 65.6387 28.9365 64.75 27.9519 64.1074C26.9808 63.4512 25.5859 62.4258 24.8747 61.8242C24.1636 61.2227 22.96 60.1016 22.2079 59.3223C21.442 58.543 20.4847 57.4766 20.0607 56.9434C19.6367 56.4102 18.7751 55.2207 18.146 54.2773C17.5169 53.334 16.5596 51.6797 16.0262 50.5859C15.4929 49.4922 14.809 47.9336 14.5082 47.0996C14.2073 46.2656 13.7697 44.8848 13.5372 44.0234C13.3047 43.1621 13.0038 41.7402 12.8534 40.8789C12.7029 40.0176 12.5115 38.3223 12.4294 37.1191C12.32 35.5195 12.32 34.3711 12.4294 32.8125C12.5115 31.6504 12.7029 29.9824 12.8534 29.1211C13.0038 28.2598 13.2773 26.9609 13.4551 26.25C13.6329 25.5391 14.0295 24.2129 14.3441 23.3105C14.6586 22.4082 15.4245 20.6172 16.0536 19.3457C16.6827 18.0742 17.6127 16.4062 18.1187 15.6543C18.6247 14.9023 19.4316 13.7676 19.9376 13.125C20.43 12.4824 21.4283 11.3613 22.1395 10.6094C22.8506 9.87109 24.0268 8.76367 24.738 8.17578C25.4491 7.57422 26.5979 6.69922 27.268 6.2207C27.9382 5.75586 29.2374 4.93555 30.1537 4.42969C31.0563 3.91016 32.3009 3.26758 32.9163 3.00781C33.5454 2.74805 34.0377 2.48828 34.0377 2.43359C34.0377 2.36523 33.8053 2.25586 33.5317 2.17383C33.1488 2.06445 32.6565 2.06445 31.6444 2.17383C30.8922 2.25586 29.5109 2.48828 28.5673 2.67969C27.6236 2.87109 26.0372 3.30859 25.0525 3.63672C24.0541 3.96484 22.6045 4.52539 21.8386 4.86719C21.0591 5.20898 19.7872 5.86523 18.994 6.31641C18.2007 6.78125 17.2844 7.32812 16.9425 7.56055C16.6006 7.79297 15.8348 8.35352 15.233 8.80469C14.6313 9.25586 13.3731 10.3633 12.4567 11.2793C11.5268 12.1816 10.3096 13.4668 9.76254 14.1504C9.21549 14.834 8.38125 15.9688 7.90258 16.6797C7.43759 17.3906 6.65805 18.7168 6.19306 19.6191C5.72807 20.5215 5.07161 21.9707 4.72971 22.832C4.38781 23.6934 3.95017 24.9648 3.7587 25.6348C3.56724 26.3047 3.28004 27.4805 3.1296 28.2324C2.97916 28.9844 2.76034 30.3652 2.65093 31.3086C2.54152 32.252 2.44579 33.9199 2.44579 35.041C2.44579 36.1484 2.51417 37.6523 2.58255 38.377C2.66461 39.1152 2.82872 40.2363 2.93813 40.8789C3.04754 41.5215 3.33474 42.752 3.56724 43.6133C3.78605 44.4746 4.19634 45.7734 4.45619 46.4844C4.72971 47.1953 5.27676 48.4531 5.67337 49.2871C6.06998 50.1211 6.58967 51.1328 6.80849 51.543C7.04098 51.9531 7.23245 52.3906 7.23245 52.5C7.24613 52.6094 7.12304 52.8691 6.95893 53.0879C6.75378 53.3613 6.56232 53.457 6.24777 53.457C6.00159 53.457 5.68704 53.3887 5.56396 53.293C5.44087 53.1973 5.01691 52.5273 4.63398 51.8164C4.25104 51.1055 3.69032 49.9844 3.38945 49.3145C3.10225 48.6582 2.6099 47.4004 2.30903 46.5254C1.99448 45.6367 1.59787 44.3242 1.42008 43.6133C1.24229 42.9023 0.955087 41.5488 0.790973 40.6055C0.572154 39.334 0.476421 38.1035 0.435392 35.752C0.380688 33.3047 0.40804 32.1973 0.58583 30.7617C0.722592 29.75 0.982439 28.2051 1.16023 27.3438C1.3517 26.4824 1.81669 24.8418 2.18594 23.7207C2.58255 22.5449 3.32106 20.7402 3.93649 19.4824C4.53824 18.2793 5.50925 16.5566 6.111 15.6543C6.71276 14.752 7.62906 13.4941 8.14875 12.8516C8.65477 12.209 9.74887 11.0059 10.5831 10.1855C11.4037 9.35156 12.6072 8.25781 13.25 7.75195C13.8927 7.23242 15.151 6.31641 16.0536 5.72852C16.9562 5.12695 18.4879 4.22461 19.4726 3.73242C20.4573 3.24023 21.9617 2.55664 22.8233 2.22852C23.6849 1.88672 25.1346 1.4082 26.0372 1.16211C26.9398 0.916016 28.4715 0.574219 29.4562 0.410156C30.4409 0.246094 31.2615 0.0820313 31.2888 0.0546875C31.3162 0.0273438 31.8906 0 32.5607 0V0ZM31.535 12.168C31.7402 12.168 32.0547 12.3047 32.2325 12.4824C32.4103 12.6465 32.5334 12.9473 32.5334 13.166C32.5334 13.3711 32.3829 13.6855 32.1915 13.877C32.0137 14.0684 31.6991 14.2188 31.5077 14.2188C31.3162 14.2188 31.0153 14.0684 30.8238 13.877C30.6324 13.6855 30.4819 13.3848 30.4819 13.1934C30.4956 13.002 30.6461 12.6875 30.8238 12.5098C31.0153 12.3047 31.3025 12.168 31.535 12.168V12.168ZM8.73683 54.9063C8.9283 54.9473 9.18814 55.1113 9.3249 55.2754C9.46167 55.4395 9.57108 55.6992 9.57108 55.8496C9.57108 56 9.44799 56.2871 9.28388 56.4922C9.07873 56.7793 8.88727 56.875 8.55904 56.875C8.29919 56.875 7.99832 56.752 7.80685 56.5605C7.64274 56.3965 7.50597 56.123 7.50597 55.9453C7.50597 55.7813 7.57435 55.5215 7.67009 55.3574C7.76582 55.207 7.95729 55.0293 8.1214 54.9609C8.27184 54.8926 8.54536 54.8652 8.73683 54.9063Z" fill="black"/>
<path d="M28.5678 2.67971C29.5114 2.4883 30.7149 2.26955 31.2346 2.20119C31.7543 2.1465 32.4108 2.07814 32.6706 2.06447C32.9305 2.0508 33.3544 2.10549 33.5869 2.18752C33.8331 2.25588 34.0382 2.36525 34.0382 2.41994C34.0382 2.4883 33.5459 2.74807 32.9168 3.00783C32.3014 3.2676 31.0568 3.91017 30.1542 4.42971C29.2379 4.93557 27.9387 5.75588 27.2685 6.22072C26.5984 6.69924 25.4496 7.57424 24.7384 8.1758C24.0273 8.76369 22.8511 9.87111 22.14 10.6094C21.4288 11.3613 20.4305 12.4824 19.9381 13.125C19.4321 13.7676 18.6252 14.9024 18.1192 15.6543C17.6132 16.4063 16.6832 18.0742 16.0541 19.3457C15.425 20.6172 14.6591 22.4082 14.3446 23.3106C14.03 24.2129 13.6334 25.5391 13.4556 26.25C13.2778 26.961 13.0043 28.2598 12.8539 29.1211C12.7034 29.9824 12.512 31.6504 12.4299 32.8125C12.3205 34.3711 12.3205 35.5196 12.4299 37.1192C12.512 38.3223 12.7034 40.0176 12.8539 40.8789C13.0043 41.7403 13.3052 43.1621 13.5377 44.0235C13.7702 44.8848 14.2078 46.2656 14.5087 47.0996C14.8095 47.9336 15.4934 49.4922 16.0267 50.586C16.5601 51.6797 17.5174 53.334 18.1465 54.2774C18.7756 55.2207 19.6372 56.4102 20.0612 56.9434C20.4852 57.4766 21.4425 58.543 22.2084 59.3223C22.9605 60.1016 24.164 61.2227 24.8752 61.8242C25.5864 62.4258 26.9677 63.4512 27.9523 64.1074C28.937 64.75 30.4004 65.6387 31.2346 66.0625C32.0689 66.4864 33.1356 66.9922 33.628 67.1973C34.1203 67.4024 34.6126 67.6621 34.7221 67.7715C34.8998 67.9492 34.7768 67.9629 33.5596 67.8809C32.8074 67.8399 31.5492 67.7031 30.756 67.5938C29.9627 67.4844 28.6498 67.2246 27.8156 67.0332C26.9813 66.8418 25.518 66.4043 24.5333 66.0762C23.5486 65.7481 21.8254 65.0235 20.704 64.4629C19.5689 63.916 17.9414 62.9863 17.0798 62.3985C16.2182 61.8242 15.1925 61.0996 14.8232 60.7988C14.4403 60.4844 13.565 59.7188 12.8675 59.1035C11.8828 58.2149 11.5136 57.9688 11.199 57.9688C10.9665 57.9688 10.7614 58.0235 10.7204 58.1055C10.6793 58.1875 10.611 58.2422 10.5426 58.2422C10.4879 58.2559 10.1596 57.9141 9.14761 56.7383L9.38011 56.3418C9.57157 56.0274 9.59893 55.8496 9.48952 55.5488C9.40746 55.3438 9.17497 55.084 8.96982 54.9883C8.70998 54.8789 8.49116 54.8653 8.19028 54.961C7.79367 55.0977 7.76632 55.0703 6.6859 53.4571L6.95943 53.0742C7.12354 52.8692 7.24662 52.6094 7.23295 52.5C7.23295 52.3906 7.04148 51.9531 6.80899 51.543C6.59017 51.1328 6.07047 50.1211 5.67387 49.2871C5.27726 48.4531 4.73021 47.1953 4.45669 46.4844C4.19684 45.7735 3.78655 44.4746 3.56774 43.6133C3.33524 42.752 3.04804 41.5215 2.93863 40.8789C2.82922 40.2363 2.66511 39.1153 2.58305 38.377C2.51467 37.6524 2.44629 36.1485 2.44629 35.041C2.44629 33.9199 2.54202 32.252 2.65143 31.3086C2.76084 30.3653 2.97966 28.9844 3.1301 28.2324C3.28054 27.4805 3.56774 26.3047 3.7592 25.6348C3.95067 24.9649 4.38831 23.6934 4.73021 22.8321C5.07211 21.9707 5.72857 20.5215 6.19356 19.6192C6.65855 18.7168 7.43809 17.3906 7.90308 16.6797C8.38175 15.9688 9.21599 14.834 9.76304 14.1504C10.3101 13.4668 11.5273 12.1817 12.4572 11.2793C13.3735 10.3633 14.6318 9.25588 15.2335 8.80471C15.8353 8.35353 16.6011 7.79299 16.943 7.56057C17.2849 7.32814 18.2012 6.78127 18.9945 6.31642C19.7877 5.86525 21.0596 5.209 21.8391 4.86721C22.605 4.52541 24.0546 3.96486 25.0393 3.63674C26.0377 3.30861 27.6241 2.87111 28.5678 2.67971Z" fill="#40A78C"/>
<path d="M42.8316 7.69723C43.064 7.45113 43.4607 7.19137 43.6795 7.12301C43.8983 7.05465 44.2539 6.99996 44.459 6.98629C44.6778 6.97262 45.0744 7.06832 45.348 7.19137C45.6352 7.30074 46.0318 7.56051 46.2506 7.76558C46.4557 7.97066 46.7293 8.43551 46.8523 8.81832C46.9618 9.18746 47.1395 9.58394 47.2216 9.67965C47.3037 9.78902 47.6592 9.85738 48.0832 9.84371C48.4798 9.84371 49.0405 9.93941 49.3141 10.0625C49.6013 10.1718 49.9432 10.3769 50.0936 10.5C50.2304 10.623 50.4629 10.9648 50.5996 11.2382C50.7364 11.5254 50.8595 12.0039 50.8595 12.3046C50.8595 12.6054 50.7501 13.0839 50.6133 13.3574C50.4902 13.6445 50.0526 14.123 49.6696 14.4238C49.273 14.7246 48.9448 15.039 48.9448 15.1074C48.9448 15.1757 49.0405 15.5175 49.1499 15.8593C49.2594 16.2011 49.3551 16.707 49.3551 16.9804C49.3551 17.2675 49.232 17.7461 49.0816 18.0468C48.9311 18.3613 48.5619 18.7578 48.2336 18.9629C47.796 19.2636 47.4951 19.3457 46.9618 19.3457C46.3874 19.3457 46.1002 19.25 45.4163 18.8261C44.9514 18.5527 44.5137 18.3203 44.4317 18.3203C44.3496 18.3203 43.9667 18.539 43.5837 18.7988C43.1871 19.0722 42.6674 19.3183 42.4486 19.3593C42.2298 19.4004 41.7785 19.373 41.4503 19.291C41.1357 19.2089 40.7117 18.9902 40.4929 18.8261C40.2878 18.6484 40.0143 18.2793 39.8775 18.0058C39.7544 17.7187 39.645 17.2402 39.645 16.9121C39.645 16.5976 39.7271 16.0781 39.8501 15.75C39.9596 15.4355 40.0143 15.0937 39.9732 14.998C39.9322 14.916 39.5903 14.6015 39.221 14.3144C38.8518 14.041 38.4552 13.5898 38.3458 13.33C38.2364 13.0703 38.1406 12.6054 38.1406 12.3046C38.1406 12.0039 38.2227 11.5527 38.3184 11.3066C38.4278 11.0742 38.7287 10.664 39.0022 10.4179C39.3441 10.1171 39.686 9.95308 40.0826 9.91207C40.4109 9.87105 40.9169 9.83004 41.2041 9.81637C41.7375 9.77535 41.7648 9.74801 42.0657 8.95504C42.2435 8.50387 42.5854 7.94332 42.8316 7.69723Z" fill="black"/>
<path d="M59.9815 17.8964C60.1593 17.623 60.5695 17.2675 60.8841 17.1035C61.2397 16.9257 61.7183 16.8164 62.1013 16.8164C62.4705 16.8164 62.9629 16.8984 63.1954 16.9941C63.4415 17.1035 63.8518 17.4043 64.0843 17.6777C64.3715 18.0058 64.6314 18.5254 64.8092 19.1406C64.9915 19.7786 65.1739 20.1432 65.3562 20.2343C65.5066 20.3164 66.0947 20.3711 66.6554 20.3711C67.394 20.3711 67.8316 20.4394 68.1872 20.6308C68.4744 20.7675 68.8026 21 68.9257 21.1367C69.0488 21.2871 69.2539 21.6152 69.3907 21.875C69.5685 22.2168 69.6095 22.5859 69.5821 23.1738C69.5411 23.707 69.418 24.1308 69.2402 24.4043C69.0761 24.6367 68.5975 25.1015 68.1461 25.4433C67.435 25.9902 67.3393 26.1132 67.3529 26.5371C67.3529 26.7968 67.476 27.3984 67.6128 27.8906C67.8316 28.6425 67.8453 28.8613 67.7085 29.3535C67.6128 29.6816 67.3393 30.1601 67.0931 30.4336C66.8606 30.707 66.505 31.0078 66.3135 31.1035C66.1221 31.1992 65.7528 31.3086 65.493 31.3632C65.2331 31.4043 64.7955 31.3906 64.5356 31.3222C64.2758 31.2402 63.7424 30.9668 63.3732 30.707C62.9902 30.4336 62.5526 30.1328 62.3885 30.0371C62.115 29.8867 61.9782 29.9414 61.1576 30.5156C60.6379 30.8711 59.9815 31.2129 59.6806 31.2949C59.366 31.3769 58.9284 31.3906 58.6549 31.3222C58.395 31.2675 57.9847 31.1171 57.7659 31.0078C57.5471 30.8847 57.2599 30.6796 57.1368 30.5429C57.0137 30.3925 56.8086 30.0781 56.6855 29.832C56.5624 29.5996 56.4667 29.1211 56.4667 28.7793C56.4667 28.4375 56.5898 27.7812 56.7402 27.3027C56.8907 26.8379 57.0137 26.4004 57.0137 26.3183C57.0274 26.2363 56.6308 25.8671 56.1385 25.498C55.6598 25.1152 55.1401 24.6367 54.976 24.4043C54.8256 24.1718 54.6614 23.7207 54.6067 23.3789C54.552 22.9961 54.5794 22.5586 54.7025 22.2168C54.7982 21.916 55.0717 21.4648 55.2905 21.205C55.523 20.9453 55.9196 20.6582 56.1521 20.5488C56.3983 20.4531 57.0548 20.3711 57.5881 20.3711C58.354 20.3847 58.6549 20.33 58.8874 20.1386C59.0378 20.0019 59.284 19.5507 59.4071 19.1406C59.5302 18.7304 59.79 18.1699 59.9815 17.8964Z" fill="black"/>
<path d="M49.5602 34.5488C49.7107 34.4668 50.0252 34.3574 50.244 34.3027C50.4629 34.248 50.8731 34.2343 51.133 34.2754C51.3928 34.3164 51.7621 34.4257 51.9536 34.5214C52.145 34.6171 52.4459 34.8632 52.6374 35.082C52.8288 35.3007 53.1024 35.8203 53.2391 36.2304C53.3896 36.6406 53.5673 37.0234 53.6494 37.0781C53.7315 37.1328 54.1691 37.1875 54.6204 37.1875C55.1264 37.1875 55.6188 37.2832 55.906 37.4336C56.1658 37.5566 56.5624 37.8984 56.7949 38.1855C57.1779 38.664 57.2189 38.8144 57.2189 39.6347C57.2189 40.4277 57.1642 40.6328 56.836 41.0566C56.6308 41.33 56.2205 41.7265 55.906 41.9316C55.441 42.2461 55.3589 42.3691 55.4136 42.6562C55.4547 42.8476 55.5641 43.3398 55.6598 43.75C55.7966 44.3242 55.7966 44.625 55.6735 45.0488C55.5914 45.3496 55.2905 45.8144 55.0033 46.1015C54.7161 46.3886 54.2375 46.6894 53.9366 46.7714C53.6357 46.8535 53.1707 46.8945 52.9109 46.8535C52.651 46.7988 52.104 46.5527 51.7074 46.2793C51.3245 46.0195 50.9005 45.8007 50.7911 45.8007C50.6817 45.8007 50.2577 46.0195 49.8611 46.2793C49.4782 46.5527 48.9311 46.7988 48.6713 46.8535C48.4114 46.8945 47.9464 46.8535 47.6456 46.7714C47.3447 46.6894 46.866 46.3886 46.5788 46.1015C46.2916 45.8281 46.0044 45.3769 45.936 45.1171C45.854 44.8574 45.7993 44.5156 45.7993 44.3652C45.7993 44.2148 45.895 43.8183 46.0044 43.4765C46.1138 43.1347 46.2096 42.7382 46.2096 42.5878C46.2096 42.4238 45.9224 42.0957 45.4847 41.7675C45.1018 41.4668 44.6642 40.9882 44.5274 40.7011C44.4043 40.4277 44.2949 39.9492 44.2949 39.6484C44.2949 39.3476 44.418 38.8691 44.5547 38.582C44.6915 38.3086 44.965 37.9394 45.1428 37.7754C45.3069 37.6113 45.6215 37.4199 45.8266 37.3378C46.0455 37.2558 46.5651 37.1875 46.9891 37.1875C47.4267 37.1875 47.8507 37.1328 47.9328 37.0781C48.0148 37.0234 48.1926 36.6406 48.343 36.2304C48.4798 35.8203 48.7533 35.3007 48.9448 35.082C49.1363 34.8632 49.4098 34.6308 49.5602 34.5488Z" fill="black"/>
<path d="M43.9119 9.98047C44.0623 9.57031 44.2128 9.1875 44.2401 9.13281C44.2812 9.06445 44.4042 9.02344 44.5 9.02344C44.6094 9.02344 44.7735 9.1875 44.8556 9.40625C44.9513 9.61133 45.1564 10.1035 45.3342 10.5C45.5667 11.0059 45.8129 11.3066 46.1685 11.5117C46.5377 11.7305 47.0027 11.8398 47.7139 11.8945C48.6028 11.9492 48.7396 12.0039 48.7806 12.2363C48.808 12.4277 48.6439 12.6465 48.1925 12.9609C47.8506 13.1934 47.454 13.6035 47.3036 13.8496C47.1532 14.082 46.989 14.5059 46.948 14.7656C46.8933 15.0527 46.948 15.5859 47.0848 16.1328C47.2899 16.9258 47.2899 17.0488 47.1121 17.2266C46.9343 17.4043 46.8523 17.3906 46.4557 17.0762C46.2095 16.8848 45.7992 16.625 45.553 16.4883C45.3206 16.3652 44.8282 16.2695 44.459 16.2695C44.0213 16.2695 43.6384 16.3789 43.2691 16.6113C42.9683 16.7891 42.5716 17.0352 42.3802 17.1445C42.1614 17.2676 41.9699 17.2949 41.8331 17.2266C41.6553 17.1172 41.6553 16.9941 41.8605 16.2012C41.9972 15.709 42.1067 15.1758 42.1067 15.0117C42.1067 14.834 41.9836 14.4375 41.8331 14.123C41.669 13.7539 41.2998 13.3438 40.8758 13.0293C40.3835 12.6602 40.192 12.4277 40.2193 12.2363C40.2467 12.0039 40.3835 11.9629 40.9442 11.9219C41.3134 11.9082 41.8331 11.8672 42.0656 11.8262C42.3255 11.7852 42.7494 11.5391 43.0777 11.252C43.4332 10.9102 43.7341 10.459 43.9119 9.98047Z" fill="#40A78C"/>
<path d="M61.267 20.0566C61.4174 19.5918 61.6225 19.127 61.7046 19.0312C61.773 18.9355 62.0055 18.8672 62.1969 18.8945C62.4978 18.9355 62.5936 19.0723 62.8944 19.9199C63.0859 20.4668 63.4004 21.123 63.6056 21.3965C63.8244 21.6562 64.1937 21.9707 64.4262 22.0938C64.6997 22.2305 65.3561 22.3535 66.1083 22.3945C66.7785 22.4355 67.3802 22.5312 67.4349 22.6133C67.4896 22.6953 67.5443 22.8867 67.5443 23.0371C67.5443 23.2148 67.2435 23.543 66.6417 23.9941C66.0947 24.4043 65.6297 24.8828 65.4792 25.1836C65.3288 25.4707 65.2194 25.9902 65.2194 26.3457C65.2194 26.7148 65.3425 27.4121 65.4929 27.918C65.6433 28.4375 65.7391 28.9023 65.698 28.9844C65.657 29.0664 65.5066 29.1758 65.3561 29.2578C65.1373 29.3672 64.9185 29.2852 64.1937 28.7793C63.7013 28.4375 63.0449 28.0957 62.7166 28.0137C62.4021 27.918 61.9097 27.8906 61.6225 27.9453C61.349 27.9863 60.6652 28.3281 60.1182 28.6973C59.448 29.1484 59.0514 29.3398 58.8873 29.2852C58.7506 29.2305 58.6001 29.0664 58.5591 28.916C58.5317 28.7656 58.6275 28.2051 58.7779 27.6855C58.942 27.166 59.0651 26.5508 59.0651 26.3184C59.0651 26.0859 58.942 25.6621 58.8053 25.3613C58.6685 25.0605 58.3403 24.6367 58.0804 24.4043C57.8206 24.1719 57.3693 23.8301 57.0957 23.6113C56.8222 23.4062 56.6034 23.1328 56.6034 22.9961C56.5897 22.873 56.6718 22.6953 56.7675 22.6133C56.8632 22.5176 57.465 22.4219 58.1078 22.3945C59.0241 22.3535 59.3933 22.2715 59.8583 21.998C60.1729 21.8203 60.5558 21.5059 60.7062 21.2871C60.8567 21.082 61.1029 20.5352 61.267 20.0566Z" fill="#40A78C"/>
<path d="M50.2303 37.0918C50.3671 36.709 50.5312 36.3535 50.6132 36.3262C50.6953 36.2988 50.8321 36.2852 50.9141 36.3125C50.9962 36.3398 51.2013 36.709 51.3654 37.1465C51.5295 37.584 51.7894 38.1035 51.9398 38.3086C52.1039 38.5273 52.4322 38.8008 52.6647 38.9238C52.9108 39.0469 53.581 39.1836 54.1417 39.2246C55.0717 39.293 55.1674 39.334 55.1674 39.5938C55.1674 39.7852 54.9212 40.0859 54.4836 40.4277C54.1007 40.7148 53.6904 41.1934 53.5536 41.4668C53.4305 41.7402 53.3211 42.2324 53.3211 42.5469C53.3211 42.875 53.4168 43.4355 53.5399 43.8184C53.7451 44.4336 53.7451 44.5156 53.5399 44.707C53.3485 44.8848 53.2527 44.8574 52.5689 44.3926C52.1586 44.1191 51.5842 43.832 51.297 43.7773C51.0235 43.709 50.5585 43.709 50.2713 43.7773C49.9978 43.832 49.4234 44.1191 49.0131 44.3926C48.3293 44.8574 48.2336 44.8848 48.0421 44.707C47.837 44.5156 47.837 44.4336 48.0421 43.8184C48.1652 43.4355 48.2609 42.8203 48.2609 42.4512C48.2609 42.0137 48.1652 41.6035 47.9874 41.3164C47.837 41.084 47.3993 40.6465 47.0301 40.3594C46.5377 40.0039 46.3463 39.7715 46.3736 39.5801C46.4146 39.3477 46.5514 39.293 47.4404 39.2246C48.0011 39.1836 48.6712 39.0469 48.9037 38.9238C49.1499 38.8008 49.5055 38.4863 49.6833 38.2402C49.861 38.0078 50.1072 37.4883 50.2303 37.0918Z" fill="#40A78C"/>
</svg>
